<?xml version="1.0" encoding="utf-8"?>
<!-- Generator: Adobe Illustrator 16.0.0, SVG Export Plug-In . SVG Version: 6.00 Build 0)  -->
<!DOCTYPE svg PUBLIC "-//W3C//DTD SVG 1.1//EN" "http://www.w3.org/Graphics/SVG/1.1/DTD/svg11.dtd">
<svg version="1.1" id="Layer_1" xmlns="http://www.w3.org/2000/svg" xmlns:xlink="http://www.w3.org/1999/xlink" x="0px" y="0px"
	 width="100px" height="100px" viewBox="0 0 100 100" enable-background="new 0 0 100 100" xml:space="preserve">
<g>
	<g>
		<path fill="none" stroke="#FFFFFF" stroke-width="4" stroke-miterlimit="10" d="M54.5,30.4H11.8c-5.4,0-9.8,4.4-9.8,9.8v26.6
			c0,5.4,4.4,9.8,9.8,9.8h19.4l17.4,13.4V76.7h5.9c5.4,0,9.8-4.4,9.8-9.8V40.2C64.3,34.8,59.9,30.4,54.5,30.4z"/>
		
			<line fill="none" stroke="#FFFFFF" stroke-width="4" stroke-linecap="round" stroke-miterlimit="10" x1="15.8" y1="46.3" x2="49.9" y2="46.3"/>
		
			<line fill="none" stroke="#FFFFFF" stroke-width="4" stroke-linecap="round" stroke-miterlimit="10" x1="15.8" y1="59.2" x2="49.9" y2="59.2"/>
	</g>
	<g>
		<path fill="none" stroke="#FFFFFF" stroke-width="4" stroke-miterlimit="10" d="M64.3,43.8h11.5l11.6,9v-9h4c3.6,0,6.6-3,6.6-6.6
			V19.4c0-3.6-3-6.6-6.6-6.6H62.8c-3.6,0-6.6,3-6.6,6.6v11.1"/>
	</g>
</g>
</svg>
