<?xml version="1.0" encoding="utf-8"?>
<!-- Generator: Adobe Illustrator 16.0.0, SVG Export Plug-In . SVG Version: 6.00 Build 0)  -->
<!DOCTYPE svg PUBLIC "-//W3C//DTD SVG 1.1//EN" "http://www.w3.org/Graphics/SVG/1.1/DTD/svg11.dtd">
<svg version="1.1" id="Layer_1" xmlns="http://www.w3.org/2000/svg" xmlns:xlink="http://www.w3.org/1999/xlink" x="0px" y="0px"
	 width="100px" height="100px" viewBox="0 0 100 100" enable-background="new 0 0 100 100" xml:space="preserve">
<g>
	<g>
		<g>
			<path fill="none" stroke="#FFFFFF" stroke-width="4" stroke-linecap="round" stroke-miterlimit="10" d="M6.061,48.534
				c2.405,0.333,3.607,0.5,6.012,0.833"/>
			<path fill="none" stroke="#FFFFFF" stroke-width="4" stroke-linecap="round" stroke-miterlimit="10" d="M16.659,24.394
				c1.82,1.667,2.729,2.501,4.548,4.166"/>
			<path fill="none" stroke="#FFFFFF" stroke-width="4" stroke-linecap="round" stroke-miterlimit="10" d="M37.897,11.985
				c0.646,2.342,0.97,3.517,1.615,5.86"/>
			<path fill="none" stroke="#FFFFFF" stroke-width="4" stroke-linecap="round" stroke-miterlimit="10" d="M62.016,12.15
				c-0.682,2.336-1.023,3.501-1.705,5.836"/>
			<path fill="none" stroke="#FFFFFF" stroke-width="4" stroke-linecap="round" stroke-miterlimit="10" d="M82.822,24.193
				c-1.819,1.667-2.73,2.499-4.549,4.165"/>
			<path fill="none" stroke="#FFFFFF" stroke-width="4" stroke-linecap="round" stroke-miterlimit="10" d="M93.491,48.495
				c-2.405,0.332-3.606,0.502-6.01,0.833"/>
		</g>
	</g>
	<g>
		<path fill="none" stroke="#FFFFFF" stroke-width="4" stroke-miterlimit="10" d="M53.798,58.863c-2.25,2.248-5.895,2.248-8.145,0
			c-2.25-2.251-2.25-5.9,0-8.149c2.25-2.25,5.897-2.247,8.146,0C56.049,52.965,56.047,56.616,53.798,58.863z"/>
		<path fill="none" stroke="#FFFFFF" stroke-width="4" stroke-linecap="round" stroke-miterlimit="10" d="M54.602,49.912"/>
	</g>
	<g>
		<path fill="none" stroke="#FFFFFF" stroke-width="4" stroke-linecap="round" stroke-miterlimit="10" d="M16.596,87.985
			C8.116,79.506,2.872,67.792,2.872,54.853C2.872,28.975,23.849,8,49.727,8c25.876,0,46.853,20.975,46.853,46.853
			c0,12.927-5.233,24.63-13.699,33.106"/>
	</g>
	
		<line fill="none" stroke="#FFFFFF" stroke-width="4" stroke-linecap="round" stroke-miterlimit="10" x1="53.8" y1="50.714" x2="69.405" y2="35.108"/>
</g>
</svg>
