<?xml version="1.0" encoding="utf-8"?>
<!-- Generator: Adobe Illustrator 16.0.0, SVG Export Plug-In . SVG Version: 6.00 Build 0)  -->
<!DOCTYPE svg PUBLIC "-//W3C//DTD SVG 1.1//EN" "http://www.w3.org/Graphics/SVG/1.1/DTD/svg11.dtd">
<svg version="1.1" id="Layer_1" xmlns="http://www.w3.org/2000/svg" xmlns:xlink="http://www.w3.org/1999/xlink" x="0px" y="0px"
	 width="100px" height="100px" viewBox="0 0 100 100" enable-background="new 0 0 100 100" xml:space="preserve">
<g>
	<g>
		<path fill="none" stroke="#FFFFFF" stroke-width="4" stroke-miterlimit="10" d="M50.511,21.398
			c-8.453,0-15.306,6.853-15.306,15.307v8.131c0,8.453,6.853,15.306,15.306,15.306c8.454,0,15.307-6.853,15.307-15.306v-8.131
			C65.818,28.25,58.965,21.398,50.511,21.398z"/>
		<path fill="none" stroke="#FFFFFF" stroke-width="4" stroke-linecap="round" stroke-miterlimit="10" d="M66.377,59.145
			l6.374,1.782c3.028,0.87,5.739,2.569,5.739,5.739v6.196c0,3.169-2.569,5.739-5.739,5.739H28.03c-3.169,0-5.739-2.57-5.739-5.739
			v-6.196c0-3.17,2.667-4.845,5.739-5.739l6.675-1.846"/>
	</g>
	<g>
		<path fill="none" stroke="#FFFFFF" stroke-width="4" stroke-miterlimit="10" d="M81.52,34.063c-5.01,0-9.072,4.063-9.072,9.073
			v4.819c0,5.01,4.063,9.07,9.072,9.07c5.011,0,9.072-4.061,9.072-9.07v-4.819C90.592,38.126,86.531,34.063,81.52,34.063z"/>
		<path fill="none" stroke="#FFFFFF" stroke-width="4" stroke-linecap="round" stroke-miterlimit="10" d="M92.161,56.437
			l2.541,1.056c1.797,0.515,3.403,1.523,3.403,3.401v3.673c0,1.878-1.523,3.401-3.403,3.401H79.11"/>
	</g>
	<g>
		<path fill="none" stroke="#FFFFFF" stroke-width="4" stroke-miterlimit="10" d="M18.622,34.063c-5.009,0-9.072,4.063-9.072,9.073
			v4.819c0,5.01,4.063,9.07,9.072,9.07c5.011,0,9.071-4.061,9.071-9.07v-4.819C27.693,38.126,23.632,34.063,18.622,34.063z"/>
		<path fill="none" stroke="#FFFFFF" stroke-width="4" stroke-linecap="round" stroke-miterlimit="10" d="M21.672,67.968H5.297
			c-1.879,0-3.402-1.523-3.402-3.401v-3.673c0-1.878,1.58-2.871,3.402-3.401L8.016,56.4"/>
	</g>
</g>
</svg>
