<?xml version="1.0" encoding="utf-8"?>
<!-- Generator: Adobe Illustrator 16.0.0, SVG Export Plug-In . SVG Version: 6.00 Build 0)  -->
<!DOCTYPE svg PUBLIC "-//W3C//DTD SVG 1.1//EN" "http://www.w3.org/Graphics/SVG/1.1/DTD/svg11.dtd">
<svg version="1.1" id="Layer_1" xmlns="http://www.w3.org/2000/svg" xmlns:xlink="http://www.w3.org/1999/xlink" x="0px" y="0px"
	 width="100px" height="100px" viewBox="0 0 100 100" enable-background="new 0 0 100 100" xml:space="preserve">
<g>
	
		<path fill-rule="evenodd" clip-rule="evenodd" fill="none" stroke="#FFFFFF" stroke-width="4" stroke-linejoin="round" stroke-miterlimit="10" d="
		M63.561,74.009c0,0,0,0.004,0,0.006c0,1.594-1.292,2.885-2.886,2.885H4.894c-1.593,0-2.886-1.291-2.886-2.885
		c0-0.002,0.001-0.005,0.001-0.005l-0.003-0.001c0,0,0-10.516,7.682-14.338c4.863-2.419,2.99-0.454,8.958-2.93
		c5.969-2.472,6.165-3.335,6.165-3.335l0.057-5.698c0,0-2.236-2.928-2.931-8.287c-1.399,0.405-2.753-8.135-1.046-7.779
		c-0.35-2.624-0.6-3.773-0.478-5.027c0.428-4.402,5.886-9,12.417-9.337c7.68,0.335,11.942,4.933,12.367,9.334
		c0.126,1.254-0.147,2.405-0.498,5.022c1.707-0.35,0.334,8.177-1.059,7.772c-0.699,5.361-2.935,8.276-2.935,8.276l0.054,5.667
		c0,0,0.193,0.808,6.161,3.279c5.97,2.475,4.097,0.624,8.959,3.042C63.561,63.493,63.561,74.009,63.561,74.009L63.561,74.009z"/>
	
		<path fill-rule="evenodd" clip-rule="evenodd" fill="none" stroke="#FFFFFF" stroke-width="4" stroke-linecap="round" stroke-linejoin="round" stroke-miterlimit="10" d="
		M63.492,57.715c2.866-1.34,2.27-1.124,2.27-1.124l0.047-4.741c0,0-1.859-2.435-2.437-6.894c-1.165,0.337-2.29-6.766-0.87-6.469
		c-0.292-2.184-0.5-3.14-0.398-4.183c0.356-3.661,4.897-7.486,10.327-7.767c6.39,0.278,9.936,4.103,10.289,7.765
		c0.104,1.043-0.123,2-0.415,4.179c1.42-0.293,0.278,6.8-0.881,6.465c-0.58,4.46-2.439,6.883-2.439,6.883l0.043,4.715
		c0,0,0.162,0.671,5.126,2.727c4.965,2.06,3.407,0.519,7.451,2.53c6.39,3.179,6.39,11.927,6.39,11.927h-0.002l0.002,0.005
		c0,1.325-1.075,2.398-2.4,2.398H70.791"/>
	
		<path fill-rule="evenodd" clip-rule="evenodd" fill="none" stroke="#FFFFFF" stroke-width="4" stroke-linejoin="round" stroke-miterlimit="10" d="
		M46.795,47.089"/>
</g>
</svg>
