<?xml version="1.0" encoding="utf-8"?>
<!-- Generator: Adobe Illustrator 17.0.0, SVG Export Plug-In . SVG Version: 6.00 Build 0)  -->
<!DOCTYPE svg PUBLIC "-//W3C//DTD SVG 1.1//EN" "http://www.w3.org/Graphics/SVG/1.1/DTD/svg11.dtd">
<svg version="1.1" id="Layer_1" xmlns="http://www.w3.org/2000/svg" xmlns:xlink="http://www.w3.org/1999/xlink" x="0px" y="0px"
	 width="521px" height="491.518px" viewBox="570.5 644.982 521 491.518" enable-background="new 570.5 644.982 521 491.518"
	 xml:space="preserve">
<g>
	<path fill="#FEFEFE" d="M913.453,920.109c-7.127,5.804-13.295,11.384-18.349,18.043c-1.54,2.029-3.285,1.909-5.281,1.256
		c-19.008-6.219-37.372-13.911-54.722-23.929c-7.59-4.383-11.433-10.475-10.89-19.655c0.55-9.295,0.081-18.654-0.064-27.984
		c-0.046-2.953,0.643-5.589,2.253-8.019c8.244-12.448,12.632-26.302,14.876-40.925c0.721-4.7,2.106-8.705,6.082-12.072
		c3.66-3.099,3.645-8.424,4.298-12.951c0.871-6.041,2.991-12.211-2.15-17.883c-2.563-2.828-1.283-6.99-0.864-10.64
		c1.002-8.728,3.816-17.385,2.07-26.249c-3.178-16.138-13.486-26.908-27.634-34.009c-31.304-15.711-62.362-8.114-85.191,14.631
		c-9.048,9.015-13.814,19.841-10.982,33.089c1.006,4.707,1.373,9.551,2.047,14.33c0.551,3.906,0.574,7.848-2.277,10.864
		c-2.219,2.348-2.578,4.81-2.181,7.753c0.645,4.779,1.084,9.578,2.274,14.281c0.869,3.433,1.819,6.558,5.028,8.775
		c2.195,1.517,3.138,4.121,3.553,6.907c2.401,16.108,6.821,31.518,16.017,45.236c1.326,1.979,1.85,4.255,1.813,6.65
		c-0.16,10.324-0.621,20.657-0.365,30.971c0.184,7.399-3.179,12.245-8.932,16.15c-8.308,5.639-17.357,9.84-26.5,13.844
		c-14.488,6.344-29.367,11.059-44.948,14.496c-21.973,4.847-37.959,18.571-47.029,39.609c-5.251,12.18-8.342,24.906-9.211,38.137
		c-0.541,8.237,0.593,9.351,8.766,9.351c80.161,0.004,160.321,0.049,240.482-0.109c4.924-0.01,6.819,1.005,6.386,6.228
		c-0.41,4.943,0.133,9.974,0.376,14.96c0.104,2.135-0.656,3.077-2.83,2.938c-1.494-0.096-2.998-0.009-4.498-0.009
		c-79.327,0-158.659-0.459-237.979,0.307c-21.205,0.205-37.603-12.687-34.696-37.269c2.413-20.401,7.234-39.941,18.248-57.502
		c14.454-23.045,35.633-36.219,62.079-41.258c19.385-3.694,36.79-12.321,54.106-21.234c1.89-0.973,2.443-2.39,2.413-4.446
		c-0.099-6.665-0.112-13.333,0.025-19.997c0.038-1.837-0.775-3.143-1.593-4.583c-6.965-12.268-11.461-25.438-14.222-39.23
		c-0.327-1.632-0.584-3.189-1.584-4.646c-10.04-14.606-12.685-31.297-10.437-48.14c1.278-9.573,1.843-18.712,1.141-28.311
		c-1.429-19.555,7.478-35.144,21.348-48.038c38.448-35.743,92.497-35.398,128.844-3.258c19.1,16.889,26.083,38.434,21.125,63.604
		c-0.566,2.875-0.344,5.381,0.821,8.177c3.668,8.801,2.602,18.039,1.263,27.08c-1.536,10.369-3.638,20.623-10.441,29.26
		c-1.406,1.785-1.463,4.686-1.978,7.108c-2.715,12.781-7.15,24.919-13.668,36.246c-1.146,1.991-1.591,3.916-1.531,6.13
		c0.121,4.496,0.655,9.065,0.059,13.474c-0.831,6.155,1.696,9.283,7.102,11.704c17.441,7.812,34.478,16.639,53.728,19.438
		C910.325,918.978,911.546,919.527,913.453,920.109z"/>
	<path fill="#FEFEFE" d="M1066.702,974.52c-8.949-32.41-43.148-61.869-76.357-63.277c-21.433-0.909-41.926,0.414-60.44,12.263
		c-24.465,15.658-41.699,36.69-43.721,66.631c-2.267,33.565-0.614,67.252-0.749,100.885c-0.031,7.707,7.068,15.103,14.85,16.691
		c5.098,1.04,10.256,1.217,15.414,0.889c9.571-0.609,22.161-8.311,20.539-22.273c-0.382-3.284-0.056-6.65-0.056-10.558
		c17.413,11.189,45.203,13.395,62.243,10.598C1046.484,1078.481,1081.502,1028.118,1066.702,974.52z M1030.716,953.434
		c-0.327,1.286-0.696,2.568-1.14,3.818c-3.483,9.801-4.074,18.933-0.998,29.705c9.013,31.565-16.64,63.227-52.771,63.21
		c-18.675-1.162-35.162-10.955-43.932-31.199c-8.679-20.037-5.39-39.057,9.446-55.036c15.277-16.453,34.26-20.79,55.528-13.236
		c4.486,1.593,8.488,2.061,12.989,0.401c4.661-1.719,9.499-2.999,14.321-4.23C1029.801,945.426,1032.134,947.846,1030.716,953.434z"
		/>
	<path fill="#FEFEFE" d="M977.71,973.172c15.24,0.009,27.329,12.031,27.306,27.155c-0.022,15.049-12.187,27.127-27.376,27.18
		c-15.115,0.053-27.287-12.097-27.292-27.245C950.342,985.144,962.445,973.162,977.71,973.172z"/>
</g>
</svg>
