<?xml version="1.0" encoding="utf-8"?>
<!-- Generator: Adobe Illustrator 16.0.0, SVG Export Plug-In . SVG Version: 6.00 Build 0)  -->
<!DOCTYPE svg PUBLIC "-//W3C//DTD SVG 1.1//EN" "http://www.w3.org/Graphics/SVG/1.1/DTD/svg11.dtd">
<svg version="1.1" id="Layer_1" xmlns="http://www.w3.org/2000/svg" xmlns:xlink="http://www.w3.org/1999/xlink" x="0px" y="0px"
	 width="100px" height="100px" viewBox="0 0 100 100" enable-background="new 0 0 100 100" xml:space="preserve">
<g>
	<path fill="none" stroke="#FFFFFF" stroke-width="4" stroke-linejoin="round" stroke-miterlimit="10" d="M98.401,57.777V42.221
		H83.28c-0.781-3.307-2.047-6.422-3.716-9.278l11.394-11.39l-11-11.003l-11.131,11.13c-3.215-2.097-6.811-3.662-10.655-4.564V1.989
		H42.61v15.126c-3.305,0.779-6.423,2.041-9.273,3.712L23.063,10.551L12.06,21.552L22.07,31.565
		c-2.098,3.215-3.657,6.808-4.564,10.656H2.38v15.557h15.126c0.905,3.849,2.467,7.442,4.564,10.659L12.06,78.448l11.003,11.003
		l10.274-10.278c2.851,1.674,5.969,2.937,9.273,3.714v15.124h15.562V82.887c3.845-0.906,7.44-2.471,10.655-4.565l11.131,11.129
		l11-11.001L79.564,67.056c1.673-2.852,2.937-5.971,3.716-9.278H98.401z"/>
	<path fill="none" stroke="#FFFFFF" stroke-width="4" stroke-linejoin="round" stroke-miterlimit="10" d="M63.13,50
		c0,7.04-5.702,12.74-12.739,12.74c-7.035,0-12.742-5.701-12.742-12.74c0-7.035,5.707-12.74,12.742-12.74
		C57.428,37.26,63.13,42.964,63.13,50z"/>
</g>
</svg>
