<svg xmlns="http://www.w3.org/2000/svg" viewBox="0 0 512 512"><defs><style>.a{fill:#fff;}</style></defs><path class="a" d="M129.51,319.77c.71-.37,1.48-.75,2.22-1.16l56.84-31.25c-9-20.76-9.19-41.51,0-62.63l-59.23-32.57c-11.9,14.17-26.86,22-45.41,22.14a55.83,55.83,0,0,1-38.51-14.61,57.66,57.66,0,0,1,65.43-94c26.19,14,39.4,47.24,24,78.11L193.36,216c13.9-20.17,32.77-31.68,57.32-34V115.29c-19.82-2.55-35.33-12.17-45.28-29.87-7-12.53-8.78-26-5.86-40.07C205.18,18.1,231-1.6,259,.1c29.33,1.78,51.93,23.76,54.41,53.62,2.41,29.22-19,58-52.31,61.66v66.55q36.34,3.45,57.32,34.07l58.42-32.12c-15.9-32.21-1-65.62,25.28-78.81A57.7,57.7,0,0,1,465,200.88c-22.24,18.81-59.39,19.54-82.76-8.62l-59,32.43c9,20.76,9.16,41.51,0,62.64l59.23,32.56c12.29-14.56,27.71-22.43,46.89-22.08a55.53,55.53,0,0,1,37.28,14.82,57.65,57.65,0,0,1-66,93.54c-25.15-13.53-39.31-46.13-23.69-78l-58.47-32.14c-13.87,20.26-32.84,31.64-57.32,34.06v66.29c39.87,4.75,56.3,42.37,51.16,68.58C307,492.17,281.68,513,254,512c-29-1.08-52.78-22.93-55.87-51-3.67-33.26,21.1-62.08,52.66-64.51v-66.3c-24.25-2.34-43.4-13.63-57.39-34.09L135,328.17c16.17,32.83.22,66.27-25.62,79a57.85,57.85,0,0,1-73.76-20.09c-16.1-24.27-11.25-56.71,11.19-75.9C68.2,292.86,105.87,291.16,129.51,319.77Zm69.71-31.58c4.75-5.1,11-6.39,17.15-8,6.37-1.64,12.8-3.11,19-5.17,4.45-1.47,6.54-4.63,5-8.64-2.59-7-6.19-13.59-9.37-20.35-.11-.21-.35-.35-.5-.55a18.3,18.3,0,0,1-3.38-13.75c.31-2.31.73-4.61.87-6.93.36-6.06,1.45-11.87,5.41-16.73,7.39-9.07,21-12.7,32.18-8.67,12,4.29,18,13.11,18.09,26.26a21,21,0,0,0,.47,4.76,17.25,17.25,0,0,1-3.55,15.7,13.09,13.09,0,0,0-1.8,2.72c-2.2,4.82-4.08,9.8-6.53,14.49s-1.52,9.18,3.17,11.29a82.83,82.83,0,0,0,10.26,3.28c9.19,2.73,19.31,2.9,26.83,10.05,13-20.59,13.3-55.89-11.92-79.59a65.16,65.16,0,0,0-86.56-2.64C187.3,228.13,184.9,264.24,199.22,288.19Z"/></svg>