<?xml version="1.0" encoding="iso-8859-1"?>
<!-- Generator: Adobe Illustrator 19.0.0, SVG Export Plug-In . SVG Version: 6.00 Build 0)  -->
<svg version="1.1" id="Capa_1" xmlns="http://www.w3.org/2000/svg" xmlns:xlink="http://www.w3.org/1999/xlink" x="0px" y="0px"
	 viewBox="0 0 512 512" style="enable-background:new 0 0 512 512;" xml:space="preserve">
<g>
	<g>
		<path d="M398.415,87.495c-5.933-6.485-16.008-6.942-22.514-0.998l-107.966,98.772l-68.945-59.751
			c-5.991-5.189-14.882-5.189-20.868,0L59.151,228.556c-6.655,5.757-7.377,15.822-1.615,22.472c3.15,3.638,7.59,5.508,12.051,5.508
			c3.691,0,7.409-1.285,10.421-3.893l108.54-94.003l69.237,60.001c6.103,5.29,15.211,5.178,21.192-0.287l118.44-108.349
			C403.901,104.066,404.352,93.991,398.415,87.495z" fill="#FFFFFF"/>
	</g>
</g>
<g>
	<g>
		<path d="M453.736,34.978c-3.734-3.75-9.061-5.401-14.255-4.43l-90.29,16.996c-5.81,1.099-10.537,5.311-12.279,10.957
			s-0.223,11.791,3.957,15.971l72.763,72.763c3.033,3.027,7.101,4.663,11.265,4.663c1.556,0,3.123-0.228,4.658-0.696
			c5.63-1.716,9.852-6.405,10.984-12.184l17.527-89.759C459.079,44.076,457.454,38.728,453.736,34.978z M414.991,103.53
			l-30.253-30.253l37.54-7.064L414.991,103.53z" fill="#FFFFFF"/>
	</g>
</g>
<g>
	<g>
		<path d="M496.066,449.858H15.934C7.133,449.858,0,456.99,0,465.791s7.133,15.934,15.934,15.934h480.133
			c8.806,0,15.934-7.133,15.934-15.934S504.867,449.858,496.066,449.858z" fill="#FFFFFF"/>
	</g>
</g>
<g>
	<g>
		<path d="M256,336.729c-8.801,0-15.934,7.133-15.934,15.934v113.129c0,8.801,7.133,15.934,15.934,15.934
			s15.934-7.133,15.934-15.934V352.663C271.934,343.862,264.801,336.729,256,336.729z" fill="#FFFFFF"/>
	</g>
</g>
<g>
	<g>
		<path d="M192.266,241.127c-8.801,0-15.934,7.133-15.934,15.934v208.73c0,8.801,7.133,15.934,15.934,15.934
			s15.934-7.133,15.934-15.934v-208.73C208.199,248.26,201.066,241.127,192.266,241.127z" fill="#FFFFFF"/>
	</g>
</g>
<g>
	<g>
		<path d="M319.734,294.239c-8.801,0-15.934,7.133-15.934,15.934v155.618c0,8.801,7.133,15.934,15.934,15.934
			s15.934-7.133,15.934-15.934V310.173C335.668,301.372,328.535,294.239,319.734,294.239z" fill="#FFFFFF"/>
	</g>
</g>
<g>
	<g>
		<path d="M383.469,182.704c-8.801,0-15.934,7.133-15.934,15.934v267.153c0,8.801,7.133,15.934,15.934,15.934
			s15.934-7.133,15.934-15.934V198.638C399.402,189.837,392.27,182.704,383.469,182.704z" fill="#FFFFFF"/>
	</g>
</g>
<g>
	<g>
		<path d="M447.203,241.127c-8.801,0-15.934,7.133-15.934,15.934v208.73c0,8.801,7.133,15.934,15.934,15.934
			s15.934-7.133,15.934-15.934v-208.73C463.137,248.26,456.004,241.127,447.203,241.127z" fill="#FFFFFF"/>
	</g>
</g>
<g>
	<g>
		<path d="M128.531,379.219c-8.801,0-15.934,7.133-15.934,15.934v70.639c0,8.801,7.133,15.934,15.934,15.934
			s15.934-7.133,15.934-15.934v-70.639C144.465,386.352,137.332,379.219,128.531,379.219z" fill="#FFFFFF"/>
	</g>
</g>
<g>
	<g>
		<path d="M64.797,331.418c-8.801,0-15.934,7.133-15.934,15.934v118.44c0,8.801,7.133,15.934,15.934,15.934
			s15.934-7.133,15.934-15.934v-118.44C80.73,338.551,73.597,331.418,64.797,331.418z" fill="#FFFFFF"/>
	</g>
</g>
</svg>
