<svg version="1.2" xmlns="http://www.w3.org/2000/svg" viewBox="0 0 409 433" width="433" height="433">
	<title>Location Prod Transparent-svg</title>
	<style>
		.s0 { fill: #ffffff } 
	</style>
	<g id="Layer" left="12">
		<path id="Layer" fill-rule="evenodd" class="s0" d="m34.2 123.8v-42.1c0-6.6 5.4-12 12.1-12h42.1c6.6 0 12 5.4 12 12v42.1c0 6.7-5.4 12.1-12 12.1h-42.1c-6.7 0-12.1-5.4-12.1-12.1zm14.2-2.1h37.8v-37.8h-37.8z"/>
		<path id="Layer" fill-rule="evenodd" class="s0" d="m114.8 123.8v-42.1c0-6.6 5.4-12 12.1-12h42.1c6.7 0 12.1 5.4 12.1 12v42.1c0 6.7-5.4 12.1-12.1 12.1h-42.1c-6.6 0-12.1-5.4-12.1-12.1zm14.2-2.1h37.9v-37.8h-37.9z"/>
		<path id="Layer" fill-rule="evenodd" class="s0" d="m195.5 123.8v-42.1c0-6.6 5.4-12 12-12h42.1c6.7 0 12.1 5.4 12.1 12v42.1c0 6.7-5.4 12.1-12.1 12.1h-42.1c-6.6 0-12-5.4-12-12.1zm14.2-2.1h37.8v-37.8h-37.8z"/>
		<path id="Layer" fill-rule="evenodd" class="s0" d="m34.2 158c0-6.6 5.4-12 12.1-12h42.1c6.6 0 12 5.4 12 12v42.1c0 6.7-5.4 12.1-12 12.1h-42.1c-6.7 0-12.1-5.4-12.1-12.1zm14.2 40h37.8v-37.8h-37.8z"/>
		<path id="Layer" fill-rule="evenodd" class="s0" d="m114.8 158c0-6.6 5.4-12 12.1-12h42.1c6.7 0 12.1 5.4 12.1 12v42.1c0 6.7-5.4 12.1-12.1 12.1h-42.1c-6.6 0-12.1-5.4-12.1-12.1zm14.2 40h37.9v-37.8h-37.9z"/>
		<path id="Layer" fill-rule="evenodd" class="s0" d="m34.2 234.3c0-6.6 5.4-12 12.1-12h42.1c6.6 0 12 5.4 12 12v42.1c0 6.7-5.4 12.1-12 12.1h-42.1c-6.7 0-12.1-5.4-12.1-12.1zm14.2 40h37.8v-37.8h-37.8z"/>
		<path id="Layer" fill-rule="evenodd" class="s0" d="m114.8 234.3c0-6.6 5.4-12 12.1-12h42.1c6.7 0 12.1 5.4 12.1 12v42.1c0 6.7-5.4 12.1-12.1 12.1h-42.1c-6.6 0-12.1-5.4-12.1-12.1zm14.2 40h37.9v-37.8h-37.9z"/>
		<path id="Layer" fill-rule="evenodd" class="s0" d="m207.5 288.5c-6.7 0-12.1-5.4-12.1-12.1v-42.1c0-5.1 3.3-9.7 8.2-11.4 2.6-1.2 17.5-0.4 20.5-0.6q1.5-5.2 3.6-10.1h-20.2c-6.6 0-12-5.4-12-12.1v-42.1c0-6.6 5.4-12 12-12h42.2c5.3-0.1 10 3.5 11.5 8.6q0.8 8.5 0.5 16.9c4.6-3 9.4-5.6 14.4-7.8v-99.4c0-5-4.1-9.1-9.1-9.1h-238.1c-5 0.1-9.1 4.1-9.1 9.1v346.2h263.4c4 0 7.1 3.2 7.1 7.1 0 4-3.1 7.1-7.1 7.1h-270.5c-3.9 0-7.1-3.1-7.1-7.1v-353.3c0-6.1 2.4-12.1 6.8-16.4 4.4-4.4 10.3-6.9 16.5-6.9h32.5v-18.5c0-5.1 2-10 5.6-13.6 3.6-3.6 8.5-5.6 13.6-5.6h134.7c5.1 0 10 2 13.6 5.6 3.6 3.6 5.7 8.5 5.7 13.6v18.5h32.4c6.2 0 12.1 2.5 16.5 6.9 4.4 4.3 6.8 10.3 6.8 16.4v94.7c78.7-20.2 143.3 67.8 100.8 136.9l-72.5 125.3c-1.3 2.2-3.7 3.5-6.2 3.5-2.5 0-4.9-1.3-6.1-3.5l-72.6-125.3c-1.5-2.3-2.9-4.9-4.1-7.4zm-131.9-247.5h144.8v-18.5c0-1.3-0.5-2.6-1.4-3.6-1-0.9-2.3-1.5-3.6-1.4h-134.8c-2.8 0-5 2.2-5 5zm291.9 152.2c-14.6-14.6-34.4-22.8-55.1-22.8-58.6-1-97.4 66-67.6 116.4 0.1 0 67.6 116.6 67.6 116.7 0.1-0.1 67.6-116.7 67.7-116.8 6.7-11.7 10.2-25 10.2-38.5-0.1-20.6-8.3-40.4-22.8-55zm-132 4.7c3.5-5.3 7.5-10.3 12.1-14.8v-22.9h-37.9v37.7zm-25.7 76.4h14.5c-3.7-12.3-4.7-25.2-3-37.8h-11.5z"/>
		<path id="Layer" class="s0" d="m190.8 397.5v-86.7h-85.7v86.7c0 3.9-3.2 7.1-7.1 7.1-3.9 0-7.1-3.2-7.1-7.1v-88.2c-0.1-7 5.5-12.7 12.5-12.7h89.1c7 0 12.6 5.7 12.5 12.7v88.2c0 3.9-3.2 7.1-7.1 7.1-3.9 0-7.1-3.2-7.1-7.1z"/>
		<path id="Layer" fill-rule="evenodd" class="s0" d="m276.9 283.8c-9.5-9.4-14.8-22.2-14.8-35.5 2.8-66.7 97.8-66.8 100.6 0 0 13.3-5.3 26.1-14.8 35.5-9.4 9.4-22.2 14.7-35.5 14.8-13.3-0.1-26.1-5.4-35.5-14.8zm10-61c-6.8 6.7-10.6 15.9-10.6 25.5 1.7 47.7 70.5 47.7 72.2 0 0-9.6-3.8-18.8-10.6-25.5-6.8-6.8-15.9-10.6-25.5-10.6-9.6 0-18.7 3.8-25.5 10.6z"/>
	</g>
</svg>