<svg version="1.1" xmlns="http://www.w3.org/2000/svg" x="0" y="0" viewBox="119 33.1 508.3 78.9" xml:space="preserve"><style type="text/css"> .st0{fill:#ffffff;} </style><path class="st0" d="M154.3 33.1c-18.4 0-33.5 14.3-34.8 32.4 -0.4 0.9-0.6 1.9-0.6 3v36.4c0 3.9 3.6 7.1 7.5 7.1s7.5-3.2 7.5-7.1v-9c4 4.5 12.8 7.2 20.8 7.2 19.3 0 34.7-15.7 34.7-34.9C189.5 48.8 173.6 33.1 154.3 33.1M175.3 49.4l-2.7 9.2c1.5 2.9 2.4 6.1 2.4 9.5 0 11.4-9.3 20.7-20.7 20.7s-20.7-9.3-20.7-20.7 9.3-20.7 20.7-20.7c3.4 0 6.7 0.9 9.5 2.4l9.2-2.7c1-0.3 2 0.3 2.3 1.2C175.4 48.7 175.4 49 175.3 49.4M154.3 57.2c-6 0-10.8 4.8-10.8 10.8s4.8 10.8 10.8 10.8 10.8-4.8 10.8-10.8S160.3 57.2 154.3 57.2M223.3 84.7v13c0 2.5-2 4.6-4.6 4.6s-4.6-2-4.6-4.6v-48c0-2.5 2-4.6 4.6-4.6 5.9 0 10-0.1 17.1-0.1 27.3 0 27.4 39.5 0 39.7L223.3 84.7 223.3 84.7zM223.3 76.3h12.5c15.1 0 15-22.9 0-22.9h-12.5V76.3zM286 61.8c-1.5-0.4-3.1-0.7-4.8-0.7 -4.3 0-8.9 1.1-11.8 6.2L269 64c-0.1-2.1-1.9-3.8-4-3.8 -2.2 0-4.1 1.8-4.1 4.1V98c0 2.3 1.9 4.2 4.2 4.2 2.3 0 4.2-1.9 4.2-4.2V80.4c0-7.3 4.9-10.9 10.7-11C281.5 66.5 283.5 63.9 286 61.8M324.2 82.1c0 11.9-8.2 20.9-20.9 20.9 -12.6 0-20.7-9-20.7-20.9 0-11.8 8.2-21 20.7-21C315.7 61.2 324.2 70.3 324.2 82.1M291 82.1c0 7.2 4.7 13.1 12.3 13.1 7.8 0 12.4-5.9 12.4-13.1 0-7.1-5.1-13.2-12.4-13.2C295.7 68.9 291 75 291 82.1M370.8 49.4v49.6c0 2.3-1.8 4.1-4.1 4.1 -2.2 0-3.9-1.7-4.1-3.8l-0.2-3.4c-3.2 5.1-8.6 7.2-14 7.2 -11.7 0-20.6-7.7-20.6-21 0-13.7 8.7-21 20.4-21 4.9 0 11.5 2.4 14.1 7.2V49.4c0-2.3 1.9-4.2 4.2-4.2C368.9 45.2 370.8 47 370.8 49.4M336.3 82.1c0 8.1 5.6 13.1 12.7 13.1 7 0 12.8-5.2 12.8-13.1 0-7.8-5.8-13.1-12.8-13.1C341.9 69 336.3 73.8 336.3 82.1M418 82.1c0 11.9-8.2 20.9-20.9 20.9 -12.6 0-20.7-9-20.7-20.9 0-11.8 8.2-21 20.7-21C409.5 61.2 418 70.3 418 82.1M384.8 82.1c0 7.2 4.7 13.1 12.3 13.1 7.8 0 12.4-5.9 12.4-13.1 0-7.1-5.1-13.2-12.4-13.2C389.4 68.9 384.8 75 384.8 82.1M453.7 70.2c-1.2 1.4-3.2 1.7-4.7 0.7 -2.8-1.8-6.2-2.8-9.3-2.8 -5.1-0.1-8.6 1.6-8.6 4.8 0.1 3.3 3.6 4.7 8.7 5.1 7.4 0.7 17.1 2.3 17.1 12.7 -0.1 7.5-6.7 12.7-17.1 12.7 -5.6 0-12-1.7-17-5.9 -1.5-1.2-1.8-3.4-0.6-5l0.2-0.2c1.2-1.6 3.5-1.9 5.1-0.7 3.8 2.7 8.8 4.4 12.5 4.4 4 0 8.5-1.5 8.6-5.2 0.1-3.6-3.3-5-9.3-5.6 -7.6-0.7-16.3-3.2-16.4-12.1 0-8.9 9.2-12.2 16.7-12.2 4.8 0 9.4 1.4 13.3 3.8C454.8 65.9 455.1 68.5 453.7 70.2zM495.2 93.8c1.9 1.8 1.5 4.9-0.7 6.3 -3.4 2.2-7.2 3.2-11.4 3.2 -11.6 0-21.2-7.3-21.2-21.1 0-13.9 9.6-21.1 21.2-21.1 4 0 7.5 0.9 10.8 3 2.1 1.3 2.5 4.3 0.8 6.1 -1.3 1.3-3.3 1.6-4.9 0.7 -2-1.2-4.4-1.7-6.6-1.7 -7.3 0-12.9 5.1-12.9 13.1 0 8.5 5.9 13 12.8 13 2.4 0 4.9-0.5 7.1-1.8C491.8 92.4 493.8 92.5 495.2 93.8zM540.4 82.1c0 11.9-8.2 20.9-20.9 20.9 -12.6 0-20.7-9-20.7-20.9 0-11.8 8.2-21 20.7-21C531.9 61.2 540.4 70.3 540.4 82.1M507.1 82.1c0 7.2 4.7 13.1 12.3 13.1 7.8 0 12.4-5.9 12.4-13.1 0-7.1-5.1-13.2-12.4-13.2C511.8 68.9 507.1 75 507.1 82.1M570.7 61.8c-1.5-0.4-3.1-0.7-4.7-0.7 -4.3 0-8.9 1.1-11.8 6.2l-0.3-3.3c-0.1-2.1-1.9-3.8-4-3.8 -2.2 0-4.1 1.8-4.1 4.1V98c0 2.3 1.9 4.2 4.2 4.2 2.3 0 4.2-1.9 4.2-4.2V80.4c0-7.3 4.9-10.9 10.6-11C566.2 66.5 568.2 63.9 570.7 61.8M576.2 85.2c0.7 6.1 5.8 10.1 13.1 10.1 3.1 0 6.7-0.9 9.4-2.5 1.5-0.9 3.4-0.8 4.7 0.5l0.1 0.1c1.7 1.7 1.5 4.6-0.6 5.9 -4 2.6-9.1 3.9-13.7 3.9 -13.2 0-21.7-8.4-21.7-21.3 0-12.2 8.6-21 21.1-21 11.7 0 20 6.4 20.4 19.6 0.1 2.6-2 4.7-4.5 4.7L576.2 85.2 576.2 85.2zM600.7 78.1c-0.5-6.4-5.1-9.7-11.9-9.7 -6.1 0-11.2 3.3-12.5 9.7H600.7zM612.4 53.9h-3v8.8c0 0.6-0.5 1.1-1.1 1.1 -0.6 0-1.1-0.5-1.1-1.1v-8.8h-3c-0.6 0-1-0.5-1-1 0-0.6 0.4-1 1-1h8.2c0.6 0 1 0.5 1 1C613.4 53.5 613 53.9 612.4 53.9zM626.1 63.8c-0.6 0-1-0.5-1-1v-5.9l-3 6.3c-0.2 0.4-0.5 0.6-0.9 0.6 -0.4 0-0.7-0.2-0.9-0.6l-3-6.3v5.9c0 0.5-0.5 1-1 1 -0.5 0-1-0.5-1-1V52.8c0-0.5 0.4-1 1-1 0.5 0 0.8 0.3 1 0.6l4 8.3 4-8.3c0.2-0.4 0.5-0.6 0.9-0.6 0.6 0 1 0.4 1 1v10.1C627.1 63.4 626.7 63.8 626.1 63.8z"/></svg>
