<?xml version="1.0" encoding="utf-8"?>
<!-- Generator: Adobe Illustrator 19.0.0, SVG Export Plug-In . SVG Version: 6.00 Build 0)  -->
<svg version="1.1" id="Layer_1" xmlns="http://www.w3.org/2000/svg" xmlns:xlink="http://www.w3.org/1999/xlink" x="0px" y="0px"
	 viewBox="-49 141 512 512" style="enable-background:new -49 141 512 512;" xml:space="preserve">
<style type="text/css">
	.st0{fill:#DBDBD9;}
	.st1{fill:#EDEDED;}
	.st2{fill:#B9F7F9;}
	.st3{fill:#A7A9AC;}
	.st4{fill:#2ECEFF;}
	.st5{fill:#00D8E0;}
	.st6{fill:#808285;}
</style>
<path class="st0" d="M445.8,625.7h-339c-9.4,0-17.1-7.6-17.1-17.1v-339c0-9.4,7.6-17.1,17.1-17.1H446c9.4,0,17.1,7.6,17.1,17.1
	v339.1C463,618.1,455.3,625.7,445.8,625.7z"/>
<path class="st1" d="M440.4,252.5H124.9v373.2h315.4c12.4,0,22.6-7.6,22.6-17.1v-339C463,260.1,452.9,252.5,440.4,252.5z"/>
<path class="st2" d="M123.8,625.7H-32c-9.4,0-17.1-7.6-17.1-17.1v-339c0-9.4,7.6-17.1,17.1-17.1h155.9L123.8,625.7L123.8,625.7z"/>
<path class="st3" d="M463,286.6H-49v-108c0-9.4,7.6-17.1,17.1-17.1H446c9.4,0,17.1,7.6,17.1,17.1L463,286.6L463,286.6z"/>
<g>
	<circle class="st4" cx="15.8" cy="224.1" r="11.4"/>
	<circle class="st4" cx="61.4" cy="224.1" r="11.4"/>
	<circle class="st4" cx="106.9" cy="224.1" r="11.4"/>
</g>
<g>
	<path class="st5" d="M57.9,390.2h-41c-9.4,0-17.1-7.6-17.1-17.1c0-9.4,7.6-17.1,17.1-17.1h41c9.4,0,17.1,7.6,17.1,17.1
		C74.9,382.5,67.4,390.2,57.9,390.2z"/>
	<path class="st5" d="M57.9,473.2h-41c-9.4,0-17.1-7.6-17.1-17.1S7.4,439,16.9,439h41c9.4,0,17.1,7.6,17.1,17.1
		S67.4,473.2,57.9,473.2z"/>
	<path class="st5" d="M57.9,556.3h-41c-9.4,0-17.1-7.6-17.1-17.1c0-9.4,7.6-17.1,17.1-17.1h41c9.4,0,17.1,7.6,17.1,17.1
		C74.9,548.7,67.4,556.3,57.9,556.3z"/>
</g>
<path class="st6" d="M463,178.6c0-9.4-7.6-17.1-17.1-17.1H207v125.2h256V178.6z"/>
<path class="st5" d="M398.4,432.5c0-49.6-50.7-89.9-113.2-89.9S172,382.8,172,432.5c0,44.3,40.5,81.2,93.6,88.6h-0.1
	c2.8,17.1-2.3,35.3-15.5,48.6c28.2,0,51.3-21.1,54.8-48.6h-0.1C357.9,513.6,398.4,476.8,398.4,432.5z"/>
<g>
	<path class="st1" d="M324.5,451.5c0,3.2-0.8,6.7-2.4,10.5c-1.6,3.8-4.1,7.4-7.5,11.1c-3.4,3.6-7.8,6.6-13.1,8.8
		c-5.3,2.3-11.5,3.4-18.5,3.4c-5.3,0-10.2-0.5-14.6-1.5c-4.4-1-8.3-2.6-11.9-4.7c-3.6-2.1-6.8-5-9.8-8.5c-2.7-3.2-5-6.7-6.8-10.7
		c-1.9-3.9-3.3-8.1-4.2-12.6c-0.9-4.5-1.4-9.2-1.4-14.2c0-8.1,1.2-15.4,3.6-21.9c2.4-6.4,5.8-12,10.2-16.5
		c4.4-4.6,9.6-8.1,15.5-10.5c5.9-2.4,12.3-3.6,19-3.6c8.2,0,15.5,1.6,21.9,4.9c6.4,3.3,11.3,7.3,14.7,12.1c3.4,4.8,5.1,9.4,5.1,13.6
		c0,2.3-0.8,4.4-2.5,6.2c-1.7,1.8-3.7,2.7-6,2.7c-2.6,0-4.6-0.6-5.9-1.9c-1.3-1.2-2.8-3.4-4.4-6.4c-2.7-5-5.8-8.8-9.4-11.3
		c-3.6-2.5-8.1-3.7-13.4-3.7c-8.4,0-15.1,3.2-20.1,9.6c-5,6.4-7.5,15.5-7.5,27.3c0,7.9,1.1,14.4,3.3,19.6s5.3,9.1,9.4,11.7
		c4.1,2.6,8.8,3.9,14.2,3.9c5.9,0,10.9-1.5,15-4.4c4.1-2.9,7.1-7.2,9.2-12.9c0.9-2.7,2-4.8,3.2-6.5c1.3-1.7,3.4-2.5,6.2-2.5
		c2.4,0,4.5,0.9,6.3,2.6C323.7,446.8,324.5,448.9,324.5,451.5z"/>
</g>
</svg>
