<?xml version="1.0" encoding="utf-8"?>
<!-- Generator: Adobe Illustrator 19.0.0, SVG Export Plug-In . SVG Version: 6.00 Build 0)  -->
<svg version="1.1" id="Layer_1" xmlns="http://www.w3.org/2000/svg" xmlns:xlink="http://www.w3.org/1999/xlink" x="0px" y="0px"
	 viewBox="-49 141 512 512" style="enable-background:new -49 141 512 512;" xml:space="preserve">
<style type="text/css">
	.st0{fill:#DBDBD9;}
	.st1{fill:#EDEDED;}
	.st2{fill:#B9F7F9;}
	.st3{fill:#A7A9AC;}
	.st4{fill:#2ECEFF;}
	.st5{fill:#00D8E0;}
	.st6{fill:#808285;}
</style>
<path class="st0" d="M445.8,625.7h-339c-9.4,0-17.1-7.6-17.1-17.1v-339c0-9.4,7.6-17.1,17.1-17.1H446c9.4,0,17.1,7.6,17.1,17.1
	v339.1C463,618.1,455.3,625.7,445.8,625.7z"/>
<path class="st1" d="M440.4,252.5H124.9v373.2h315.4c12.4,0,22.6-7.6,22.6-17.1v-339C463,260.1,452.9,252.5,440.4,252.5z"/>
<path class="st2" d="M123.8,625.7H-32c-9.4,0-17.1-7.6-17.1-17.1v-339c0-9.4,7.6-17.1,17.1-17.1h155.9L123.8,625.7L123.8,625.7z"/>
<path class="st3" d="M463,286.6H-49v-108c0-9.4,7.6-17.1,17.1-17.1H446c9.4,0,17.1,7.6,17.1,17.1L463,286.6L463,286.6z"/>
<g>
	<circle class="st4" cx="15.8" cy="224.1" r="11.4"/>
	<circle class="st4" cx="61.4" cy="224.1" r="11.4"/>
	<circle class="st4" cx="106.9" cy="224.1" r="11.4"/>
</g>
<g>
	<path class="st5" d="M57.9,390.2h-41c-9.4,0-17.1-7.6-17.1-17.1c0-9.4,7.6-17.1,17.1-17.1h41c9.4,0,17.1,7.6,17.1,17.1
		C74.9,382.5,67.4,390.2,57.9,390.2z"/>
	<path class="st5" d="M57.9,473.2h-41c-9.4,0-17.1-7.6-17.1-17.1S7.4,439,16.9,439h41c9.4,0,17.1,7.6,17.1,17.1
		S67.4,473.2,57.9,473.2z"/>
	<path class="st5" d="M57.9,556.3h-41c-9.4,0-17.1-7.6-17.1-17.1c0-9.4,7.6-17.1,17.1-17.1h41c9.4,0,17.1,7.6,17.1,17.1
		C74.9,548.7,67.4,556.3,57.9,556.3z"/>
</g>
<path class="st6" d="M463,178.6c0-9.4-7.6-17.1-17.1-17.1H207v125.2h256V178.6z"/>
<g>
	<path class="st5" d="M259.7,460.8c0,3.8-0.9,7.8-2.8,12.2c-1.9,4.4-4.8,8.7-8.7,12.9c-4,4.2-9,7.6-15.2,10.3
		c-6.2,2.6-13.4,3.9-21.6,3.9c-6.2,0-11.9-0.6-17-1.8c-5.1-1.2-9.7-3-13.9-5.5c-4.2-2.5-8-5.8-11.5-9.9c-3.1-3.7-5.8-7.8-8-12.4
		c-2.2-4.6-3.9-9.5-5-14.7c-1.1-5.2-1.7-10.7-1.7-16.6c0-9.5,1.4-18,4.1-25.5c2.8-7.5,6.7-13.9,11.9-19.3
		c5.2-5.3,11.2-9.4,18.1-12.2c6.9-2.8,14.3-4.2,22.1-4.2c9.6,0,18.1,1.9,25.5,5.7c7.5,3.8,13.2,8.5,17.1,14.1c4,5.6,6,10.9,6,15.9
		c0,2.7-1,5.2-2.9,7.2c-1.9,2.1-4.3,3.1-7,3.1c-3.1,0-5.4-0.7-6.9-2.2c-1.5-1.4-3.2-3.9-5.1-7.5c-3.1-5.8-6.8-10.2-11-13.1
		c-4.2-2.9-9.4-4.3-15.6-4.3c-9.8,0-17.6,3.7-23.5,11.2c-5.8,7.5-8.7,18.1-8.7,31.8c0,9.2,1.3,16.8,3.9,22.9
		c2.6,6.1,6.2,10.6,10.9,13.6c4.7,3,10.3,4.5,16.6,4.5c6.9,0,12.7-1.7,17.4-5.1c4.8-3.4,8.3-8.4,10.7-15c1-3.1,2.3-5.6,3.8-7.6
		c1.5-2,3.9-2.9,7.2-2.9c2.8,0,5.3,1,7.3,3C258.6,455.4,259.7,457.9,259.7,460.8z"/>
</g>
<path class="st5" d="M407.5,348.5h-102c-5.2,0-9.5-4.3-9.5-9.5l0,0c0-5.2,4.3-9.5,9.5-9.5h102c5.2,0,9.5,4.3,9.5,9.5l0,0
	C417,344.2,412.7,348.5,407.5,348.5z"/>
<path class="st5" d="M407.5,428.5h-102c-5.2,0-9.5-4.3-9.5-9.5l0,0c0-5.2,4.3-9.5,9.5-9.5h102c5.2,0,9.5,4.3,9.5,9.5l0,0
	C417,424.2,412.7,428.5,407.5,428.5z"/>
<path class="st5" d="M407.5,508.5h-102c-5.2,0-9.5-4.3-9.5-9.5l0,0c0-5.2,4.3-9.5,9.5-9.5h102c5.2,0,9.5,4.3,9.5,9.5l0,0
	C417,504.2,412.7,508.5,407.5,508.5z"/>
<path class="st5" d="M407.5,588.5h-102c-5.2,0-9.5-4.3-9.5-9.5l0,0c0-5.2,4.3-9.5,9.5-9.5h102c5.2,0,9.5,4.3,9.5,9.5l0,0
	C417,584.2,412.7,588.5,407.5,588.5z"/>
</svg>
