<?xml version="1.0" encoding="utf-8"?>
<!-- Generator: Adobe Illustrator 19.1.0, SVG Export Plug-In . SVG Version: 6.00 Build 0)  -->
<svg version="1.1" id="Layer_1" xmlns="http://www.w3.org/2000/svg" xmlns:xlink="http://www.w3.org/1999/xlink" x="0px" y="0px"
	 viewBox="0 0 61.5 58.1" style="enable-background:new 0 0 61.5 58.1;" xml:space="preserve">
<style type="text/css">
	.st0{fill:#D0ECED;}
	.st1{fill:#A3DBDD;}
	.st2{fill:#3EA1A1;}
	.st3{fill:#87C76B;}
	.st4{fill:#99CF8C;}
	.st5{fill:#43BBBE;}
	.st6{fill:#0B6164;}
	.st7{fill:#DBDCD9;}
	.st8{fill:#EDEDED;}
	.st9{fill:#BFE6ED;}
	.st10{fill:#A8AAAD;}
	.st11{fill:#45C8F5;}
	.st12{fill:#4CC4D1;}
	.st13{fill:#818285;}
	.st14{fill:#D0E39E;}
	.st15{fill:#6BA579;}
</style>
<g>
	<path class="st0" d="M4.5,6.6C3.1,6.6,2,7.6,2,8.8v25.3l30,2.2L30.7,6.6H4.5z"/>
	<path class="st1" d="M59.5,8.8c0-1.2-1.1-2.2-2.5-2.2H30.7v28.6l28.8-1.1V8.8z"/>
	<polyline class="st2" points="37.1,50.6 37.1,39.6 24.4,39.6 24.4,50.6 	"/>
	<path class="st3" d="M45.1,25.7c-3.7,0-6.8,2.1-8.1,5.1h16.3C52,27.9,48.8,25.7,45.1,25.7z"/>
	<ellipse class="st3" cx="45.1" cy="17.5" rx="5.3" ry="5"/>
	<path class="st4" d="M16.4,25.7c-3.6,0-6.6,2.1-7.9,5.1h15.7C23,27.9,19.9,25.7,16.4,25.7z"/>
	<ellipse class="st4" cx="16.4" cy="17.5" rx="5.1" ry="5"/>
	<g>
		<path class="st5" d="M2,34.1v4.4c0,1.2,1.1,2.2,2.5,2.2H57c1.4,0,2.5-1,2.5-2.2v-4.4H2z"/>
		<path class="st5" d="M48.8,51.5h-36c-0.5,0-0.9-0.4-0.9-0.8s0.4-0.8,0.9-0.8h36c0.5,0,0.9,0.4,0.9,0.8S49.3,51.5,48.8,51.5z"/>
	</g>
	<ellipse class="st6" cx="30.7" cy="37.4" rx="0.9" ry="0.8"/>
</g>
</svg>
