<?xml version="1.0" encoding="utf-8"?>
<!-- Generator: Adobe Illustrator 19.1.0, SVG Export Plug-In . SVG Version: 6.00 Build 0)  -->
<svg version="1.1" id="Layer_1" xmlns="http://www.w3.org/2000/svg" xmlns:xlink="http://www.w3.org/1999/xlink" x="0px" y="0px"
	 viewBox="0 0 61.5 58.1" style="enable-background:new 0 0 61.5 58.1;" xml:space="preserve">
<style type="text/css">
	.st0{fill:#D0ECED;}
	.st1{fill:#A3DBDD;}
	.st2{fill:#3EA1A1;}
	.st3{fill:#87C76B;}
	.st4{fill:#99CF8C;}
	.st5{fill:#43BBBE;}
	.st6{fill:#0B6164;}
	.st7{fill:#DBDCD9;}
	.st8{fill:#EDEDED;}
	.st9{fill:#BFE6ED;}
	.st10{fill:#A8AAAD;}
	.st11{fill:#45C8F5;}
	.st12{fill:#4CC4D1;}
	.st13{fill:#818285;}
	.st14{fill:#D0E39E;}
	.st15{fill:#6BA579;}
</style>
<g>
	<path class="st7" d="M57.2,54.8H19.6c-1,0-1.9-0.8-1.9-1.9V15.3c0-1,0.8-1.9,1.9-1.9h37.6c1,0,1.9,0.8,1.9,1.9v37.6
		C59.1,53.9,58.3,54.8,57.2,54.8z"/>
	<path class="st8" d="M57.2,13.4H30.7v41.4h26.5c1,0,1.9-0.8,1.9-1.9V15.3C59.1,14.3,58.3,13.4,57.2,13.4z"/>
	<path class="st9" d="M21.5,54.8H4.3c-1,0-1.9-0.8-1.9-1.9V15.3c0-1,0.8-1.9,1.9-1.9h17.3L21.5,54.8L21.5,54.8z"/>
	<path class="st10" d="M59.1,17.2H2.4v-12c0-1,0.8-1.9,1.9-1.9h53c1,0,1.9,0.8,1.9,1.9L59.1,17.2L59.1,17.2z"/>
	<g>
		<circle class="st11" cx="9.6" cy="10.3" r="1.3"/>
		<circle class="st11" cx="14.6" cy="10.3" r="1.3"/>
		<circle class="st11" cx="19.6" cy="10.3" r="1.3"/>
	</g>
	<g>
		<path class="st12" d="M14.2,28.7H9.7c-1,0-1.9-0.8-1.9-1.9c0-1,0.8-1.9,1.9-1.9h4.5c1,0,1.9,0.8,1.9,1.9
			C16.1,27.8,15.3,28.7,14.2,28.7z"/>
		<path class="st12" d="M14.2,37.9H9.7c-1,0-1.9-0.8-1.9-1.9c0-1,0.8-1.9,1.9-1.9h4.5c1,0,1.9,0.8,1.9,1.9
			C16.1,37,15.3,37.9,14.2,37.9z"/>
		<path class="st12" d="M14.2,47.1H9.7c-1,0-1.9-0.8-1.9-1.9s0.8-1.9,1.9-1.9h4.5c1,0,1.9,0.8,1.9,1.9S15.3,47.1,14.2,47.1z"/>
	</g>
	<path class="st13" d="M59.1,5.2c0-1-0.8-1.9-1.9-1.9H30.7v13.9h28.4V5.2z"/>
	<path class="st12" d="M50,48H39.9c-1,0-1.9-0.8-1.9-1.9v-5c0-3.8,3.1-6.9,6.9-6.9s6.9,3.1,6.9,6.9v5C51.9,47.1,51.1,48,50,48z"/>
	<path class="st9" d="M45,37.9c-3.8,0-6.9-3.1-6.9-6.9S41.2,24,45,24s6.9,3.1,6.9,6.9S48.8,37.9,45,37.9z"/>
</g>
</svg>
