<?xml version="1.0" encoding="utf-8"?>
<!-- Generator: Adobe Illustrator 19.1.0, SVG Export Plug-In . SVG Version: 6.00 Build 0)  -->
<svg version="1.1" id="Layer_1" xmlns="http://www.w3.org/2000/svg" xmlns:xlink="http://www.w3.org/1999/xlink" x="0px" y="0px"
	 viewBox="47 42.6 512 512" style="enable-background:new 47 42.6 512 512;" xml:space="preserve">
<style type="text/css">
	.st0{fill:#DBDBD9;}
	.st1{fill:#EDEDED;}
	.st2{fill:#B9F7F9;}
	.st3{fill:#BABABA;}
	.st4{fill:#A7A9AC;}
	.st5{fill:#2ECEFF;}
	.st6{fill:#00D8E0;}
	.st7{fill:#545454;}
	.st8{fill:#808285;}
	.st9{fill:#8E8E8E;}
</style>
<path class="st0" d="M541.9,530.7h-339c-9.4,0-17.1-7.6-17.1-17.1v-339c0-9.4,7.6-17.1,17.1-17.1h339.2c9.4,0,17.1,7.6,17.1,17.1
	v339.1C559.1,523.1,551.4,530.7,541.9,530.7z"/>
<path class="st1" d="M536.5,157.5H221v373.2h315.4c12.4,0,22.6-7.6,22.6-17.1v-339C559.1,165.1,549,157.5,536.5,157.5z"/>
<path class="st2" d="M219.9,530.7H64.1c-9.4,0-17.1-7.6-17.1-17.1v-339c0-9.4,7.6-17.1,17.1-17.1H220L219.9,530.7L219.9,530.7z"/>
<path class="st4" d="M559.1,191.6h-512v-108c0-9.4,7.6-17.1,17.1-17.1h477.9c9.4,0,17.1,7.6,17.1,17.1L559.1,191.6L559.1,191.6z"/>
<g>
	<circle class="st5" cx="111.9" cy="129.1" r="11.4"/>
	<circle class="st5" cx="157.5" cy="129.1" r="11.4"/>
	<circle class="st5" cx="203" cy="129.1" r="11.4"/>
</g>
<g>
	<path class="st6" d="M154,295.2h-41c-9.4,0-17.1-7.6-17.1-17.1c0-9.4,7.6-17.1,17.1-17.1h41c9.4,0,17.1,7.6,17.1,17.1
		C171,287.5,163.5,295.2,154,295.2z"/>
	<path class="st6" d="M154,378.2h-41c-9.4,0-17.1-7.6-17.1-17.1S103.5,344,113,344h41c9.4,0,17.1,7.6,17.1,17.1
		S163.5,378.2,154,378.2z"/>
	<path class="st6" d="M154,461.3h-41c-9.4,0-17.1-7.6-17.1-17.1c0-9.4,7.6-17.1,17.1-17.1h41c9.4,0,17.1,7.6,17.1,17.1
		C171,453.7,163.5,461.3,154,461.3z"/>
</g>
<path class="st8" d="M559.1,83.6c0-9.4-7.6-17.1-17.1-17.1H303.1v125.2h256V83.6z"/>
<g transform="translate(-1)">
	<g>
		<g>
			<path class="st9" d="M508.9,294.5l-0.6-0.6c-5.8-5.8-15.1-5.8-20.9,0l-22.5,22.7c-1.2,1.2-3.1,1.2-4.3,0.1L429,287.6
				c-3.1-2.8-7.1-4.4-11.2-4.4h-46.9c-1.1,0-2.2,0.4-3,1.2L328,322.2c-5.8,5.8-6.2,15.2-0.9,21c2.9,3.1,6.7,4.7,10.9,4.7h0.1
				c4.1,0,8.1-1.8,10.8-4.8l28.1-29.7H387l-65.6,73.3H281c-9.6,0-17.5,7.2-18,16.3c-0.3,4.8,1.4,9.3,4.7,12.8
				c3.2,3.4,7.8,5.4,12.5,5.4h60.4c1.2,0,2.3-0.5,3.1-1.4l30.9-33l26,27.2l-7.9,50.2c-2,8.3,2,16.8,9.5,20.1c2.3,1,4.7,1.6,7.2,1.6
				c2.6,0,5.2-0.6,7.6-1.8c4.6-2.3,8-6.5,9.2-11.7l13.4-71.9c0.3-1.4-0.2-2.8-1.2-3.8l-35.8-35.7l28.4-28.4l19.8,19.8
				c5.5,5.5,15.2,5.5,20.7,0l37.2-37.2c2.7-2.7,4.3-6.4,4.3-10.3C513.1,300.9,511.6,297.2,508.9,294.5z"/>
			<path class="st9" d="M461.3,296.2c14.3,0,25.9-11.6,25.9-25.9c0-14.3-11.6-25.9-25.9-25.9c-14.3,0-25.9,11.6-25.9,25.9
				C435.4,284.6,447,296.2,461.3,296.2z"/>
		</g>
	</g>
</g>
</svg>
