<?xml version="1.0" encoding="utf-8"?>
<!-- Generator: Adobe Illustrator 19.1.0, SVG Export Plug-In . SVG Version: 6.00 Build 0)  -->
<svg version="1.1" id="Layer_1" xmlns="http://www.w3.org/2000/svg" xmlns:xlink="http://www.w3.org/1999/xlink" x="0px" y="0px"
	 viewBox="56 -56 512 512" style="enable-background:new 56 -56 512 512;" xml:space="preserve">
<style type="text/css">
	.st0{fill:#DBDBD9;}
	.st1{fill:#EDEDED;}
	.st2{fill:#B9F7F9;}
	.st3{fill:#BABABA;}
	.st4{fill:#A7A9AC;}
	.st5{fill:#2ECEFF;}
	.st6{fill:#808285;}
	.st7{fill:#00D8E0;}
	.st8{fill:#D1D2D3;}
</style>
<path class="st0" d="M550.8,432.1h-339c-9.4,0-17.1-7.6-17.1-17.1V76c0-9.4,7.6-17.1,17.1-17.1H551c9.4,0,17.1,7.6,17.1,17.1v339.1
	C568,424.5,560.3,432.1,550.8,432.1z"/>
<path class="st1" d="M545.4,58.9H229.9v373.2h315.4c12.4,0,22.6-7.6,22.6-17.1V76C568,66.5,557.9,58.9,545.4,58.9z"/>
<path class="st2" d="M228.8,432.1H73c-9.4,0-17.1-7.6-17.1-17.1V76c0-9.4,7.6-17.1,17.1-17.1h155.9L228.8,432.1L228.8,432.1z"/>
<path class="st4" d="M568,93h-512V-15c0-9.4,7.6-17.1,17.1-17.1H551c9.4,0,17.1,7.6,17.1,17.1L568,93L568,93z"/>
<g>
	<circle class="st5" cx="120.8" cy="30.5" r="11.4"/>
	<circle class="st5" cx="166.4" cy="30.5" r="11.4"/>
	<circle class="st5" cx="211.9" cy="30.5" r="11.4"/>
</g>
<path class="st6" d="M568-15c0-9.4-7.6-17.1-17.1-17.1H312V93.1h256V-15z"/>
<path class="st7" d="M331.3,385.9c-30.8,0-57.1,19-67.9,45.8h135.9C388.4,404.8,362.1,385.9,331.3,385.9z"/>
<circle class="st8" cx="331.3" cy="326.5" r="45.8"/>
<path class="st2" d="M529.3,204.3c0-42.3-43.2-76.6-96.5-76.6c-53.3,0-96.5,34.3-96.5,76.6c0,37.8,34.5,69.2,79.8,75.5h-0.1
	c2.4,14.6-2,30.1-13.2,41.4c24,0,43.7-18,46.7-41.4h-0.1C494.8,273.5,529.3,242.1,529.3,204.3z"/>
<g>
	<circle class="st7" cx="398.9" cy="204.3" r="6.8"/>
	<circle class="st7" cx="466.9" cy="204.3" r="6.8"/>
	<circle class="st7" cx="432.9" cy="204.3" r="6.8"/>
</g>
<path class="st7" d="M181.5,156h-79c-5.8,0-10.5-4.7-10.5-10.5v0c0-5.8,4.7-10.5,10.5-10.5h79c5.8,0,10.5,4.7,10.5,10.5v0
	C192,151.3,187.3,156,181.5,156z"/>
<path class="st7" d="M181.5,235.5h-79c-5.8,0-10.5-4.7-10.5-10.5v0c0-5.8,4.7-10.5,10.5-10.5h79c5.8,0,10.5,4.7,10.5,10.5v0
	C192,230.8,187.3,235.5,181.5,235.5z"/>
<path class="st7" d="M181.5,315h-79c-5.8,0-10.5-4.7-10.5-10.5l0,0c0-5.8,4.7-10.5,10.5-10.5h79c5.8,0,10.5,4.7,10.5,10.5l0,0
	C192,310.3,187.3,315,181.5,315z"/>
<path class="st7" d="M181.5,394.5h-79c-5.8,0-10.5-4.7-10.5-10.5l0,0c0-5.8,4.7-10.5,10.5-10.5h79c5.8,0,10.5,4.7,10.5,10.5l0,0
	C192,389.8,187.3,394.5,181.5,394.5z"/>
</svg>
