<?xml version="1.0" encoding="utf-8"?>
<!-- Generator: Adobe Illustrator 19.1.0, SVG Export Plug-In . SVG Version: 6.00 Build 0)  -->
<svg version="1.1" id="Layer_1" xmlns="http://www.w3.org/2000/svg" xmlns:xlink="http://www.w3.org/1999/xlink" x="0px" y="0px"
	 viewBox="56 -56 512 512" style="enable-background:new 56 -56 512 512;" xml:space="preserve">
<style type="text/css">
	.st0{fill:#DBDBD9;}
	.st1{fill:#EDEDED;}
	.st2{fill:#B9F7F9;}
	.st3{fill:#BABABA;}
	.st4{fill:#A7A9AC;}
	.st5{fill:#2ECEFF;}
	.st6{fill:#808285;}
	.st7{fill:#00D8E0;}
</style>
<path class="st0" d="M550.8,432.1h-339c-9.4,0-17.1-7.6-17.1-17.1V76c0-9.4,7.6-17.1,17.1-17.1H551c9.4,0,17.1,7.6,17.1,17.1v339.1
	C568,424.5,560.3,432.1,550.8,432.1z"/>
<path class="st1" d="M545.4,58.9H229.9v373.2h315.4c12.4,0,22.6-7.6,22.6-17.1V76C568,66.5,557.9,58.9,545.4,58.9z"/>
<path class="st2" d="M228.8,432.1H73c-9.4,0-17.1-7.6-17.1-17.1V76c0-9.4,7.6-17.1,17.1-17.1h155.9L228.8,432.1L228.8,432.1z"/>
<path class="st4" d="M568,93h-512V-15c0-9.4,7.6-17.1,17.1-17.1H551c9.4,0,17.1,7.6,17.1,17.1L568,93L568,93z"/>
<g>
	<circle class="st5" cx="120.8" cy="30.5" r="11.4"/>
	<circle class="st5" cx="166.4" cy="30.5" r="11.4"/>
	<circle class="st5" cx="211.9" cy="30.5" r="11.4"/>
</g>
<path class="st6" d="M568-15c0-9.4-7.6-17.1-17.1-17.1H312V93.1h256V-15z"/>
<path class="st7" d="M125.5,199.8c-1.9,0-3.8-0.7-5.2-2.2l-26.1-26.1c-2.9-2.9-2.9-7.6,0-10.4s7.6-2.9,10.4,0l20.9,20.9l47-47
	c2.9-2.9,7.6-2.9,10.4,0c2.9,2.9,2.9,7.6,0,10.4l-52.2,52.2C129.3,199.1,127.4,199.8,125.5,199.8z"/>
<path class="st7" d="M125.5,305.8c-1.9,0-3.8-0.7-5.2-2.2l-26.1-26.1c-2.9-2.9-2.9-7.6,0-10.4c2.9-2.9,7.6-2.9,10.4,0l20.9,20.9
	l47-47c2.9-2.9,7.6-2.9,10.4,0c2.9,2.9,2.9,7.6,0,10.4l-52.2,52.2C129.3,305.1,127.4,305.8,125.5,305.8z"/>
<path class="st7" d="M125.5,403.8c-1.9,0-3.8-0.7-5.2-2.2l-26.1-26.1c-2.9-2.9-2.9-7.6,0-10.4c2.9-2.9,7.6-2.9,10.4,0l20.9,20.9
	l47-47c2.9-2.9,7.6-2.9,10.4,0c2.9,2.9,2.9,7.6,0,10.4l-52.2,52.2C129.3,403.1,127.4,403.8,125.5,403.8z"/>
<path class="st7" d="M473.7,188.1H322.3c-4,0-7.3-3.3-7.3-7.3v-2.6c0-4,3.3-7.3,7.3-7.3h151.5c4,0,7.3,3.3,7.3,7.3v2.6
	C481,184.8,477.7,188.1,473.7,188.1z"/>
<path class="st7" d="M473.7,288.7H322.3c-4,0-7.3-3.3-7.3-7.3v-2.6c0-4,3.3-7.3,7.3-7.3h151.5c4,0,7.3,3.3,7.3,7.3v2.6
	C481,285.4,477.7,288.7,473.7,288.7z"/>
<path class="st7" d="M473.7,386H322.3c-4,0-7.3-3.3-7.3-7.3v-2.6c0-4,3.3-7.3,7.3-7.3h151.5c4,0,7.3,3.3,7.3,7.3v2.6
	C481,382.7,477.7,386,473.7,386z"/>
</svg>
