<?xml version="1.0" encoding="utf-8"?>
<!-- Generator: Adobe Illustrator 19.1.0, SVG Export Plug-In . SVG Version: 6.00 Build 0)  -->
<svg version="1.1" id="Layer_1" xmlns="http://www.w3.org/2000/svg" xmlns:xlink="http://www.w3.org/1999/xlink" x="0px" y="0px"
	 viewBox="56 -56 512 512" style="enable-background:new 56 -56 512 512;" xml:space="preserve">
<style type="text/css">
	.st0{fill:#DBDBD9;}
	.st1{fill:#EDEDED;}
	.st2{fill:#B9F7F9;}
	.st3{fill:#BABABA;}
	.st4{fill:#A7A9AC;}
	.st5{fill:#2ECEFF;}
	.st6{fill:#808285;}
	.st7{fill:#00D8E0;}
	.st8{fill:#CEE8FA;}
</style>
<path class="st0" d="M550.8,432.1h-339c-9.4,0-17.1-7.6-17.1-17.1V76c0-9.4,7.6-17.1,17.1-17.1H551c9.4,0,17.1,7.6,17.1,17.1v339.1
	C568,424.5,560.3,432.1,550.8,432.1z"/>
<path class="st1" d="M545.4,58.9H229.9v373.2h315.4c12.4,0,22.6-7.6,22.6-17.1V76C568,66.5,557.9,58.9,545.4,58.9z"/>
<path class="st2" d="M228.8,432.1H73c-9.4,0-17.1-7.6-17.1-17.1V76c0-9.4,7.6-17.1,17.1-17.1h155.9L228.8,432.1L228.8,432.1z"/>
<path class="st4" d="M568,93h-512V-15c0-9.4,7.6-17.1,17.1-17.1H551c9.4,0,17.1,7.6,17.1,17.1L568,93L568,93z"/>
<g>
	<circle class="st5" cx="120.8" cy="30.5" r="11.4"/>
	<circle class="st5" cx="166.4" cy="30.5" r="11.4"/>
	<circle class="st5" cx="211.9" cy="30.5" r="11.4"/>
</g>
<path class="st6" d="M568-15c0-9.4-7.6-17.1-17.1-17.1H312V93.1h256V-15z"/>
<path class="st7" d="M125.5,199.8c-1.9,0-3.8-0.7-5.2-2.2l-26.1-26.1c-2.9-2.9-2.9-7.6,0-10.4s7.6-2.9,10.4,0l20.9,20.9l47-47
	c2.9-2.9,7.6-2.9,10.4,0c2.9,2.9,2.9,7.6,0,10.4l-52.2,52.2C129.3,199.1,127.4,199.8,125.5,199.8z"/>
<path class="st7" d="M125.5,305.8c-1.9,0-3.8-0.7-5.2-2.2l-26.1-26.1c-2.9-2.9-2.9-7.6,0-10.4c2.9-2.9,7.6-2.9,10.4,0l20.9,20.9
	l47-47c2.9-2.9,7.6-2.9,10.4,0c2.9,2.9,2.9,7.6,0,10.4l-52.2,52.2C129.3,305.1,127.4,305.8,125.5,305.8z"/>
<path class="st7" d="M125.5,403.8c-1.9,0-3.8-0.7-5.2-2.2l-26.1-26.1c-2.9-2.9-2.9-7.6,0-10.4c2.9-2.9,7.6-2.9,10.4,0l20.9,20.9
	l47-47c2.9-2.9,7.6-2.9,10.4,0c2.9,2.9,2.9,7.6,0,10.4l-52.2,52.2C129.3,403.1,127.4,403.8,125.5,403.8z"/>
<path class="st7" d="M429,394.6h-37.9c-4.6,0-8.4-3.7-8.4-8.4v-99.6c0-4.6,3.7-8.4,8.4-8.4c4.6,0,8.4,3.7,8.4,8.4v91.3h21.1v-33.6
	c0-4.6,3.7-8.4,8.4-8.4s8.4,3.7,8.4,8.4v42C437.4,390.8,433.6,394.6,429,394.6z"/>
<path class="st7" d="M499.8,231.3h-20c-4.6,0-8.4-3.7-8.4-8.4s3.7-8.4,8.4-8.4H499l27.2-33.7L499,147.2H348.6v67.3h79.8
	c4.6,0,8.4,3.7,8.4,8.4s-3.7,8.4-8.4,8.4h-88.2c-4.6,0-8.4-3.7-8.4-8.4v-84.1c0-4.6,3.7-8.4,8.4-8.4h159.5c4.6,0,8.8,2,11.7,5.6
	l28.5,35.3c4.4,5.5,4.4,13.4,0,18.9l-28.5,35.3C508.6,229.3,504.4,231.3,499.8,231.3z"/>
<path class="st7" d="M375,176.6c-3-1.1-5.7-2-5.7-3.8c0-1.7,1.9-2.7,5.2-2.7c2.6,0,4,0.6,5.1,1.1c0.7,0.3,1.4,0.6,2.1,0.6
	c2.4,0,3.4-2.5,3.4-3.7c0-4-8.8-4.2-10.6-4.2c-6.5,0-13.4,2.5-13.4,9.5c0,6.3,5.7,8.4,10.2,10.2c3.5,1.3,6.5,2.4,6.5,4.9
	c0,2.3-2.7,3.2-5.2,3.2c-3,0-4.7-1.2-6-2.1c-1-0.7-1.8-1.3-2.8-1.3c-1.9,0-3.7,2.1-3.7,3.8c0,3.3,6,6.2,12.7,6.2
	c8.1,0,13.1-3.9,13.1-10.3C386.1,180.5,380,178.3,375,176.6z"/>
<path class="st7" d="M414.6,167.2c0-1.6-1-3.3-2.8-3.3h-22.1c-1.9,0-2.8,1.6-2.8,3.3c0,1.9,1.2,3.3,2.8,3.3h7v24.6
	c0,1.7,2,2.5,4.1,2.5c2,0,4.1-0.8,4.1-2.5v-24.6h6.9C413.4,170.5,414.6,169.2,414.6,167.2z"/>
<path class="st7" d="M431.4,166.1c-0.6-1.8-3-2.4-5-2.4c-2,0-4.4,0.6-5,2.4L411.4,194c-0.1,0.3-0.1,0.5-0.1,0.6c0,2,2.9,3.1,5,3.1
	c2,0,2.7-0.9,2.9-1.6l1.8-5.4h11l1.8,5.4c0.2,0.7,0.9,1.6,3,1.6c2.1,0,5-1.2,5-3.1c0-0.2-0.1-0.4-0.1-0.5L431.4,166.1z M430,184.8
	h-7.2l3.6-10.7L430,184.8z"/>
<path class="st7" d="M463.7,183.2c4.2-1.4,6.4-4.7,6.4-9.2c0-4.5-2.3-9.9-13.1-9.9h-10.3c-1.6,0-2.9,1.1-2.9,2.5v28.7
	c0,1.7,2.1,2.5,4.1,2.5c2,0,4.1-0.8,4.1-2.5v-10.8h3.3l7.2,11.9c0.6,1.1,1.7,1.7,2.9,1.7c2.2,0,4.9-1.7,4.9-3.7c0-0.2,0-0.7-0.4-1.1
	L463.7,183.2z M462,174.4c0,2.8-1.5,4-4.9,4h-5v-8h5C460.5,170.4,462,171.7,462,174.4z"/>
<path class="st7" d="M495.6,164h-22.1c-1.9,0-2.8,1.6-2.8,3.3c0,1.9,1.2,3.3,2.8,3.3h7v24.6c0,1.7,2,2.5,4.1,2.5
	c2,0,4.1-0.8,4.1-2.5v-24.6h6.9c1.6,0,2.8-1.4,2.8-3.3C498.4,165.6,497.4,164,495.6,164z"/>
<path class="st8" d="M298.6,306.9H429v-84.1H298.6c-2,0-3.9,0.9-5.2,2.5l-28.5,35.3c-2,2.5-2,6,0,8.4l28.5,35.3
	C294.6,306,296.5,306.9,298.6,306.9z"/>
<g>
	<path class="st7" d="M429,315.3H298.6c-4.6,0-8.8-2-11.7-5.6l-28.5-35.3c-4.4-5.5-4.4-13.4,0-18.9l28.5-35.3
		c2.9-3.6,7.1-5.6,11.7-5.6H429c4.6,0,8.4,3.7,8.4,8.4v84.1C437.4,311.5,433.6,315.3,429,315.3z M299.4,298.5h121.3v-67.3H299.4
		l-27.2,33.7L299.4,298.5z"/>
	<path class="st7" d="M449.6,394.8h-80.3c-4.6,0-8.4-3.7-8.4-8.4c0-4.6,3.7-8.4,8.4-8.4h80.3c4.6,0,8.4,3.7,8.4,8.4
		C458,391.1,454.2,394.8,449.6,394.8z"/>
</g>
</svg>
