<?xml version="1.0" encoding="utf-8"?>
<!-- Generator: Adobe Illustrator 19.1.0, SVG Export Plug-In . SVG Version: 6.00 Build 0)  -->
<svg version="1.1" id="Layer_1" xmlns="http://www.w3.org/2000/svg" xmlns:xlink="http://www.w3.org/1999/xlink" x="0px" y="0px"
	 viewBox="56 -56 512 512" style="enable-background:new 56 -56 512 512;" xml:space="preserve">
<style type="text/css">
	.st0{fill:#DBDBD9;}
	.st1{fill:#EDEDED;}
	.st2{fill:#B9F7F9;}
	.st3{fill:#BABABA;}
	.st4{fill:#A7A9AC;}
	.st5{fill:#2ECEFF;}
	.st6{fill:#00D8E0;}
	.st7{fill:#545454;}
	.st8{fill:#808285;}
	.st9{fill:#8E8E8E;}
	.st10{font-family:'Linotte-Bold';}
	.st11{font-size:150px;}
</style>
<path class="st0" d="M550.8,432.1h-339c-9.4,0-17.1-7.6-17.1-17.1V76c0-9.4,7.6-17.1,17.1-17.1H551c9.4,0,17.1,7.6,17.1,17.1v339.1
	C568,424.5,560.3,432.1,550.8,432.1z"/>
<path class="st1" d="M545.4,58.9H229.9v373.2h315.4c12.4,0,22.6-7.6,22.6-17.1V76C568,66.5,557.9,58.9,545.4,58.9z"/>
<path class="st2" d="M228.8,432.1H73c-9.4,0-17.1-7.6-17.1-17.1V76c0-9.4,7.6-17.1,17.1-17.1h155.9L228.8,432.1L228.8,432.1z"/>
<path class="st3" d="M229.5,192.9V37.1c0-9.4,7-17.1,15.6-17.1h310.2c8.6,0,15.6,7.6,15.6,17.1V193L229.5,192.9L229.5,192.9z"/>
<path class="st4" d="M568,93h-512V-15c0-9.4,7.6-17.1,17.1-17.1H551c9.4,0,17.1,7.6,17.1,17.1L568,93L568,93z"/>
<g>
	<circle class="st5" cx="120.8" cy="30.5" r="11.4"/>
	<circle class="st5" cx="166.4" cy="30.5" r="11.4"/>
	<circle class="st5" cx="211.9" cy="30.5" r="11.4"/>
</g>
<g>
	<path class="st6" d="M162.9,196.6h-41c-9.4,0-17.1-7.6-17.1-17.1c0-9.4,7.6-17.1,17.1-17.1h41c9.4,0,17.1,7.6,17.1,17.1
		C179.9,188.9,172.4,196.6,162.9,196.6z"/>
	<path class="st6" d="M162.9,279.6h-41c-9.4,0-17.1-7.6-17.1-17.1s7.6-17.1,17.1-17.1h41c9.4,0,17.1,7.6,17.1,17.1
		S172.4,279.6,162.9,279.6z"/>
	<path class="st6" d="M162.9,362.7h-41c-9.4,0-17.1-7.6-17.1-17.1c0-9.4,7.6-17.1,17.1-17.1h41c9.4,0,17.1,7.6,17.1,17.1
		C179.9,355.1,172.4,362.7,162.9,362.7z"/>
</g>
<g>
	<path class="st7" d="M417.4,167.5v-41c0-9.4,7.6-17.1,17.1-17.1c9.4,0,17.1,7.6,17.1,17.1v41c0,9.4-7.6,17.1-17.1,17.1
		C425.1,184.5,417.4,176.9,417.4,167.5z"/>
	<path class="st7" d="M497.4,167.5v-41c0-9.4,7.6-17.1,17.1-17.1c9.4,0,17.1,7.6,17.1,17.1v41c0,9.4-7.6,17.1-17.1,17.1
		C505.1,184.5,497.4,176.9,497.4,167.5z"/>
	<path class="st7" d="M334.4,167.5v-41c0-9.4,7.6-17.1,17.1-17.1s17.1,7.6,17.1,17.1v41c0,9.4-7.6,17.1-17.1,17.1
		S334.4,176.9,334.4,167.5z"/>
	<path class="st7" d="M251.3,167.5v-41c0-9.4,7.6-17.1,17.1-17.1c9.4,0,17.1,7.6,17.1,17.1v41c0,9.4-7.6,17.1-17.1,17.1
		C258.9,184.5,251.3,176.9,251.3,167.5z"/>
</g>
<path class="st8" d="M568-15c0-9.4-7.6-17.1-17.1-17.1H312V93.1h256V-15z"/>
<text transform="matrix(1 0 0 1 305 351)" class="st9 st10 st11">24</text>
</svg>
