<?xml version="1.0" encoding="utf-8"?>
<!-- Generator: Adobe Illustrator 19.1.0, SVG Export Plug-In . SVG Version: 6.00 Build 0)  -->
<svg version="1.1" id="Layer_1" xmlns="http://www.w3.org/2000/svg" xmlns:xlink="http://www.w3.org/1999/xlink" x="0px" y="0px"
	 viewBox="-41 164.9 512 512" style="enable-background:new -41 164.9 512 512;" xml:space="preserve">
<style type="text/css">
	.st0{fill:#EDEDED;}
	.st1{fill:#A7A9AC;}
	.st2{fill:#2ECEFF;}
	.st3{fill:#808285;}
	.st4{fill:#00D8E0;stroke:#00D8E0;stroke-width:10;stroke-miterlimit:10;}
	.st5{fill:#00D8E0;stroke:#00D8E0;stroke-width:5.7407;stroke-miterlimit:10;}
</style>
<g>
	<path class="st0" d="M447.4,651.6H-17.8c-12.9,0-23.5-7.6-23.5-17.1v-339c0-9.4,10.4-17.1,23.5-17.1h465.5
		c12.9,0,23.5,7.6,23.5,17.1v339.1C471,644,460.5,651.6,447.4,651.6z"/>
	<path class="st0" d="M440,278.4H7.1v373.2h432.8c17,0,31-7.6,31-17.1v-339C471,286,457.2,278.4,440,278.4z"/>
</g>
<path class="st1" d="M471.1,312.5h-512v-108c0-9.4,7.6-17.1,17.1-17.1h477.9c9.4,0,17.1,7.6,17.1,17.1L471.1,312.5L471.1,312.5z"/>
<g>
	<circle class="st2" cx="23.9" cy="250" r="11.4"/>
	<circle class="st2" cx="69.5" cy="250" r="11.4"/>
	<circle class="st2" cx="115" cy="250" r="11.4"/>
</g>
<path class="st3" d="M471.1,204.5c0-9.4-7.6-17.1-17.1-17.1H215.1v125.2h256V204.5z"/>
<g>
	<g>
		<g>
			<path class="st5" d="M105,455.5H81.8c-3.6,0-6.4,2.9-6.4,6.4c0,3.6,2.9,6.4,6.4,6.4H105c3.6,0,6.4-2.9,6.4-6.4
				C111.4,458.4,108.5,455.5,105,455.5z"/>
		</g>
	</g>
	<g>
		<g>
			<path class="st5" d="M334.6,455.5h-23.2c-3.6,0-6.4,2.9-6.4,6.4c0,3.6,2.9,6.4,6.4,6.4h23.2c3.6,0,6.4-2.9,6.4-6.4
				C341,458.4,338.1,455.5,334.6,455.5z"/>
		</g>
	</g>
	<g>
		<g>
			<path class="st5" d="M202.7,344.2v23.2c0,3.6,2.9,6.4,6.4,6.4c3.6,0,6.4-2.9,6.4-6.4v-23.2c0-3.6-2.9-6.4-6.4-6.4
				C205.6,337.7,202.7,340.6,202.7,344.2z"/>
		</g>
	</g>
	<g>
		<g>
			<path class="st5" d="M131.5,538.7c-2.5-2.5-6.6-2.5-9.1,0l-16.8,16.8c-2.5,2.5-2.5,6.6,0,9.1c1.3,1.3,2.9,1.9,4.6,1.9
				s3.3-0.6,4.6-1.9l16.8-16.8C134,545.3,134,541.2,131.5,538.7z"/>
		</g>
	</g>
	<g>
		<g>
			<path class="st5" d="M299.1,371.1c-2.5-2.5-6.6-2.5-9.1,0l-16.4,16.4c-2.5,2.5-2.5,6.6,0,9.1c1.3,1.3,2.9,1.9,4.6,1.9
				c1.6,0,3.3-0.6,4.6-1.9l16.4-16.4C301.6,377.7,301.6,373.6,299.1,371.1z"/>
		</g>
	</g>
	<g>
		<g>
			<path class="st5" d="M142.8,387.4l-16.4-16.4c-2.5-2.5-6.6-2.5-9.1,0c-2.5,2.5-2.5,6.6,0,9.1l16.4,16.4c1.3,1.3,2.9,1.9,4.6,1.9
				s3.3-0.6,4.6-1.9C145.3,394,145.3,390,142.8,387.4z"/>
		</g>
	</g>
	<g>
		<g>
			<path class="st5" d="M310.9,555.5l-16.8-16.8c-2.5-2.5-6.6-2.5-9.1,0c-2.5,2.5-2.5,6.6,0,9.1l16.8,16.8c1.3,1.3,2.9,1.9,4.6,1.9
				c1.6,0,3.3-0.6,4.6-1.9C313.4,562.1,313.4,558,310.9,555.5z"/>
		</g>
	</g>
	<g>
		<g>
			<path class="st5" d="M208.2,386.7c-44.5,0-80.7,37.9-80.7,84.4c0,21.6,7.8,44.9,21.3,63.9c10.4,14.6,15.9,30.8,15.9,46.9v40.5
				c0,7.1,5.8,12.9,12.9,12.9h61.4c7.1,0,12.9-5.8,12.9-12.9v-40.5c0-16.1,5.5-32.3,15.9-46.9c13.5-19,21.3-42.3,21.3-63.9
				C288.9,424.5,252.7,386.7,208.2,386.7z M238.9,622.4h-61.4v-8.4h30.7c3.6,0,6.4-2.9,6.4-6.4c0-3.6-2.9-6.4-6.4-6.4h-30.7v-8.4
				h61.4L238.9,622.4C238.9,622.4,238.9,622.4,238.9,622.4z M199.2,502.3l-8.6-18.4h35.3l-8.6,18.4c-0.3,0.7-0.5,1.5-0.6,2.3
				l-5,75.2h-6.9l-5-75.2C199.7,503.8,199.5,503,199.2,502.3z M257.1,527.5c-11.5,16.1-17.8,34.2-18.2,52.2h-14.4l4.9-73.1
				l12.4-26.5c0.9-2,0.8-4.3-0.4-6.2c-1.2-1.9-3.2-3-5.4-3h-55.5c-2.2,0-4.2,1.1-5.4,3c-1.2,1.9-1.3,4.2-0.4,6.2l12.4,26.5l4.9,73.1
				h-14.4c-0.5-18.1-6.7-36.1-18.2-52.2c-11.8-16.6-18.9-37.7-18.9-56.4c0-39.5,30.4-71.6,67.8-71.6s67.8,32.1,67.8,71.6
				C276,489.8,269,510.9,257.1,527.5z"/>
		</g>
	</g>
</g>
</svg>
