<?xml version="1.0" encoding="utf-8"?>
<!-- Generator: Adobe Illustrator 19.1.0, SVG Export Plug-In . SVG Version: 6.00 Build 0)  -->
<svg version="1.1" id="Layer_1" xmlns="http://www.w3.org/2000/svg" xmlns:xlink="http://www.w3.org/1999/xlink" x="0px" y="0px"
	 viewBox="56 -56 512 512" style="enable-background:new 56 -56 512 512;" xml:space="preserve">
<style type="text/css">
	.st0{fill:#DBDBD9;}
	.st1{fill:#EDEDED;}
	.st2{fill:#B9F7F9;}
	.st3{fill:#BABABA;}
	.st4{fill:#A7A9AC;}
	.st5{fill:#2ECEFF;}
	.st6{fill:#808285;}
	.st7{fill:#00D8E0;}
</style>
<path class="st0" d="M550.8,432.1h-339c-9.4,0-17.1-7.6-17.1-17.1V76c0-9.4,7.6-17.1,17.1-17.1H551c9.4,0,17.1,7.6,17.1,17.1v339.1
	C568,424.5,560.3,432.1,550.8,432.1z"/>
<path class="st1" d="M545.4,58.9H229.9v373.2h315.4c12.4,0,22.6-7.6,22.6-17.1V76C568,66.5,557.9,58.9,545.4,58.9z"/>
<path class="st2" d="M228.8,432.1H73c-9.4,0-17.1-7.6-17.1-17.1V76c0-9.4,7.6-17.1,17.1-17.1h155.9L228.8,432.1L228.8,432.1z"/>
<path class="st4" d="M568,93h-512V-15c0-9.4,7.6-17.1,17.1-17.1H551c9.4,0,17.1,7.6,17.1,17.1L568,93L568,93z"/>
<g>
	<circle class="st5" cx="120.8" cy="30.5" r="11.4"/>
	<circle class="st5" cx="166.4" cy="30.5" r="11.4"/>
	<circle class="st5" cx="211.9" cy="30.5" r="11.4"/>
</g>
<path class="st6" d="M568-15c0-9.4-7.6-17.1-17.1-17.1H312V93.1h256V-15z"/>
<path class="st7" d="M125.5,199.8c-1.9,0-3.8-0.7-5.2-2.2l-26.1-26.1c-2.9-2.9-2.9-7.6,0-10.4s7.6-2.9,10.4,0l20.9,20.9l47-47
	c2.9-2.9,7.6-2.9,10.4,0c2.9,2.9,2.9,7.6,0,10.4l-52.2,52.2C129.3,199.1,127.4,199.8,125.5,199.8z"/>
<path class="st7" d="M125.5,305.8c-1.9,0-3.8-0.7-5.2-2.2l-26.1-26.1c-2.9-2.9-2.9-7.6,0-10.4c2.9-2.9,7.6-2.9,10.4,0l20.9,20.9
	l47-47c2.9-2.9,7.6-2.9,10.4,0c2.9,2.9,2.9,7.6,0,10.4l-52.2,52.2C129.3,305.1,127.4,305.8,125.5,305.8z"/>
<path class="st7" d="M125.5,403.8c-1.9,0-3.8-0.7-5.2-2.2l-26.1-26.1c-2.9-2.9-2.9-7.6,0-10.4c2.9-2.9,7.6-2.9,10.4,0l20.9,20.9
	l47-47c2.9-2.9,7.6-2.9,10.4,0c2.9,2.9,2.9,7.6,0,10.4l-52.2,52.2C129.3,403.1,127.4,403.8,125.5,403.8z"/>
<path class="st7" d="M317.7,254.2v-34.9c13.9,2.4,16,10.2,16.3,14.7c0.1,1.2,1,2.1,2.2,2.1h15.2c1.3,0,2.3-1.1,2.2-2.4
	c-1-19.2-14.1-31.5-36-34.2v-11.7c0-1.2-1-2.2-2.2-2.2h-15.2c-1.2,0-2.2,1-2.2,2.2v11.7c-22.8,2.9-36.1,16.1-36.1,36.6
	s13.3,33.7,36.1,36.6v34.9c-13.9-2.4-16-10.2-16.3-14.7c-0.1-1.2-1-2.1-2.2-2.1h-15.2c-1.3,0-2.3,1.1-2.2,2.4
	c1,19.2,14.1,31.5,36,34.2v11.7c0,1.2,1,2.2,2.2,2.2h15.2c1.2,0,2.2-1,2.2-2.2v-11.7c22.8-2.9,36.1-16.1,36.1-36.6
	C353.8,270.3,340.5,257,317.7,254.2z M298.1,252.8c-16.4-2.9-16.4-13.1-16.4-16.8c0-3.7,0-13.9,16.4-16.8V252.8z M317.7,307.5V274
	c16.4,2.9,16.4,13.1,16.4,16.8C334.1,294.5,334.1,304.7,317.7,307.5z"/>
<path class="st7" d="M498.5,162h-102c-5.2,0-9.5-4.3-9.5-9.5v0c0-5.2,4.3-9.5,9.5-9.5h102c5.2,0,9.5,4.3,9.5,9.5v0
	C508,157.7,503.7,162,498.5,162z"/>
<path class="st7" d="M498.5,242h-102c-5.2,0-9.5-4.3-9.5-9.5v0c0-5.2,4.3-9.5,9.5-9.5h102c5.2,0,9.5,4.3,9.5,9.5v0
	C508,237.7,503.7,242,498.5,242z"/>
<path class="st7" d="M498.5,322h-102c-5.2,0-9.5-4.3-9.5-9.5l0,0c0-5.2,4.3-9.5,9.5-9.5h102c5.2,0,9.5,4.3,9.5,9.5l0,0
	C508,317.7,503.7,322,498.5,322z"/>
<path class="st7" d="M498.5,402h-102c-5.2,0-9.5-4.3-9.5-9.5l0,0c0-5.2,4.3-9.5,9.5-9.5h102c5.2,0,9.5,4.3,9.5,9.5l0,0
	C508,397.7,503.7,402,498.5,402z"/>
</svg>
