<svg xmlns="http://www.w3.org/2000/svg" xmlns:xlink="http://www.w3.org/1999/xlink" version="1.1" style="" xml:space="preserve" width="512" height="512"><rect id="backgroundrect" width="100%" height="100%" x="0" y="0" fill="none" stroke="none"/>
<style type="text/css">
	.st0{fill:#DBDBD9;}
	.st1{fill:#EDEDED;}
	.st2{fill:#B9F7F9;}
	.st3{fill:#BABABA;}
	.st4{fill:#A7A9AC;}
	.st5{fill:#2ECEFF;}
	.st6{fill:#00D8E0;}
	.st7{fill:#545454;}
	.st8{fill:#808285;}
	.st9{fill:#8E8E8E;}
</style>








<g class="currentLayer" style=""><title>Layer 1</title><path class="st0" d="M494.2560218811035,475.20262069702153 h-339 c-9.4,0 -17.1,-7.6 -17.1,-17.1 v-339 c0,-9.4 7.6,-17.1 17.1,-17.1 h339.2 c9.4,0 17.1,7.6 17.1,17.1 v339.1 C511.45602188110354,467.6026206970215 503.7560218811035,475.20262069702153 494.2560218811035,475.20262069702153 z" id="svg_1"/><path class="st1" d="M488.8560218811035,102.00262069702148 H173.35602188110352 v373.2 h315.4 c12.4,0 22.6,-7.6 22.6,-17.1 v-339 C511.45602188110354,109.60262069702148 501.3560218811035,102.00262069702148 488.8560218811035,102.00262069702148 z" id="svg_2"/><path class="st2" d="M172.25602188110352,475.20262069702153 H16.45602188110351 c-9.4,0 -17.1,-7.6 -17.1,-17.1 v-339 c0,-9.4 7.6,-17.1 17.1,-17.1 H172.35602188110352 L172.25602188110352,475.20262069702153 L172.25602188110352,475.20262069702153 z" id="svg_3"/><path class="st4" d="M511.45602188110354,136.10262069702148 h-512 v-108 c0,-9.4 7.6,-17.1 17.1,-17.1 h477.9 c9.4,0 17.1,7.6 17.1,17.1 L511.45602188110354,136.10262069702148 L511.45602188110354,136.10262069702148 z" id="svg_4"/><g id="svg_5" class="">
	<circle class="st5" cx="64.25602722167969" cy="73.60263061523438" r="11.399999618530273" id="svg_6"/>
	<circle class="st5" cx="109.85601806640625" cy="73.60263061523438" r="11.399999618530273" id="svg_7"/>
	<circle class="st5" cx="155.35601806640625" cy="73.60263061523438" r="11.399999618530273" id="svg_8"/>
</g><g id="svg_9" class="">
	<path class="st6" d="M106.35602188110352,239.70262069702147 h-41 c-9.4,0 -17.1,-7.6 -17.1,-17.1 c0,-9.4 7.6,-17.1 17.1,-17.1 h41 c9.4,0 17.1,7.6 17.1,17.1 C123.35602188110352,232.00262069702148 115.85602188110352,239.70262069702147 106.35602188110352,239.70262069702147 z" id="svg_10"/>
	<path class="st6" d="M106.35602188110352,322.7026206970215 h-41 c-9.4,0 -17.1,-7.6 -17.1,-17.1 S55.856021881103516,288.5026206970215 65.35602188110352,288.5026206970215 h41 c9.4,0 17.1,7.6 17.1,17.1 S115.85602188110352,322.7026206970215 106.35602188110352,322.7026206970215 z" id="svg_11"/>
	<path class="st6" d="M106.35602188110352,405.8026206970215 h-41 c-9.4,0 -17.1,-7.6 -17.1,-17.1 c0,-9.4 7.6,-17.1 17.1,-17.1 h41 c9.4,0 17.1,7.6 17.1,17.1 C123.35602188110352,398.2026206970215 115.85602188110352,405.8026206970215 106.35602188110352,405.8026206970215 z" id="svg_12"/>
</g><path class="st8" d="M511.45602188110354,28.10262069702148 c0,-9.4 -7.6,-17.1 -17.1,-17.1 H255.45602188110354 v125.2 h256 V28.10262069702148 z" id="svg_13"/><g class="" id="svg_19" fill="#919191" fill-opacity="1">
	<g id="svg_21" fill="#919191" fill-opacity="1">
		<path d="M270.8575758934021,287.7830630540848 c18.556313395500183,37.112626791000366 50.36713635921478,67.59799879789352 87.47976315021515,87.47976315021515 L387.49726009368896,346.1029051542282 c3.9758330857753754,-3.9758330857753754 9.278156697750092,-5.301284042596817 13.254509568214417,-2.650901913642884 c14.579960525035858,5.3018038272857675 30.484852222204207,7.95270574092865 47.7162344455719,7.95270574092865 c7.95270574092865,0 13.254509568214417,5.3018038272857675 13.254509568214417,13.254509568214417 v45.065332531929016 c0,7.95270574092865 -5.3018038272857675,13.254509568214417 -13.254509568214417,13.254509568214417 C323.87561416625977,422.9790606498718 223.1413414478302,322.24478793144226 223.1413414478302,197.65239799022675 C223.1413414478302,189.6996922492981 228.44314527511597,184.39788842201233 236.39585101604462,184.39788842201233 h46.39078348875046 c7.95270574092865,0 13.254509568214417,5.3018038272857675 13.254509568214417,13.254509568214417 c0,15.9054114818573 2.650901913642884,31.8108229637146 7.95270574092865,47.7162344455719 c1.325450956821442,3.976352870464325 0,9.278156697750092 -2.650901913642884,13.254509568214417 L270.8575758934021,287.7830630540848 z" id="svg_2" fill="#919191" fill-opacity="1"/>
	</g>
</g></g></svg>