<?xml version="1.0" encoding="utf-8"?>
<!-- Generator: Adobe Illustrator 19.1.0, SVG Export Plug-In . SVG Version: 6.00 Build 0)  -->
<svg version="1.1" id="Capa_1" xmlns="http://www.w3.org/2000/svg" xmlns:xlink="http://www.w3.org/1999/xlink" x="0px" y="0px"
	 viewBox="-268 391.9 58 58" style="enable-background:new -268 391.9 58 58;" xml:space="preserve">
<style type="text/css">
	.st0{fill:#808285;}
	.st1{fill:#EDEDED;}
	.st2{fill:#A7A9AC;}
	.st3{fill:#B9F7F9;}
	.st4{fill:#00D8E0;}
	.st5{fill:#FFFFFF;}
</style>
<path class="st0" d="M-226.4,449.9h-25.2c-1.9,0-3.4-1.5-3.4-3.4v-51.2c0-1.9,1.5-3.4,3.4-3.4h25.2c1.9,0,3.4,1.5,3.4,3.4v51.2
	C-223,448.4-224.5,449.9-226.4,449.9z"/>
<rect x="-255" y="397.9" class="st1" width="32" height="46.4"/>
<circle class="st2" cx="-239" cy="446.9" r="2.1"/>
<circle class="st3" cx="-230" cy="395" r="1"/>
<path class="st2" d="M-237,395.9h-4c-0.6,0-1-0.4-1-1c0-0.6,0.4-1,1-1h4c0.6,0,1,0.4,1,1C-236,395.4-236.4,395.9-237,395.9z"/>
<g>
	<path class="st4" d="M-234.7,425.3v8.7c0,1.1-0.8,2.1-1.7,2.1h-9.2l-1.5,3.9c-0.1,0.2-0.4,0.2-0.4,0l-1.2-3.9h-1.1
		c-0.9,0-1.7-0.9-1.7-2.1v-8.7c0-1.1,0.8-2.1,1.7-2.1h13.3C-235.5,423.2-234.7,424.1-234.7,425.3z"/>
	<g>
		<circle class="st5" cx="-248.4" cy="430.1" r="1.2"/>
		<circle class="st5" cx="-243.1" cy="430.1" r="1.2"/>
		<circle class="st5" cx="-237.7" cy="430.1" r="1.2"/>
	</g>
</g>
<g>
	<path class="st3" d="M-241.4,404.4h13.3c0.9,0,1.7,0.9,1.7,2.1v8.7c0,1.1-0.8,2.1-1.7,2.1h-1.1l-1.2,3.9c0,0.2-0.4,0.2-0.4,0
		l-1.5-3.9h-9.2c-0.9,0-1.7-0.9-1.7-2.1v-8.7C-243.1,405.3-242.4,404.4-241.4,404.4z"/>
	<g>
		<circle class="st5" cx="-240.1" cy="411.3" r="1.2"/>
		<circle class="st5" cx="-234.7" cy="411.3" r="1.2"/>
		<circle class="st5" cx="-229.4" cy="411.3" r="1.2"/>
	</g>
</g>
</svg>
