<?xml version="1.0" encoding="utf-8"?>
<!-- Generator: Adobe Illustrator 19.1.0, SVG Export Plug-In . SVG Version: 6.00 Build 0)  -->
<svg version="1.1" id="Capa_1" xmlns="http://www.w3.org/2000/svg" xmlns:xlink="http://www.w3.org/1999/xlink" x="0px" y="0px"
	 viewBox="-268 391.9 58 58" style="enable-background:new -268 391.9 58 58;" xml:space="preserve">
<style type="text/css">
	.st0{fill:#808285;}
	.st1{fill:#EDEDED;}
	.st2{fill:#A7A9AC;}
	.st3{fill:#B9F7F9;}
	.st4{fill:#00D8E0;}
</style>
<path class="st0" d="M-226.4,449.9h-25.2c-1.9,0-3.4-1.5-3.4-3.4v-51.2c0-1.9,1.5-3.4,3.4-3.4h25.2c1.9,0,3.4,1.5,3.4,3.4v51.2
	C-223,448.4-224.5,449.9-226.4,449.9z"/>
<rect x="-255" y="397.9" class="st1" width="32" height="46.4"/>
<circle class="st2" cx="-239" cy="446.9" r="2.1"/>
<circle class="st3" cx="-230" cy="395" r="1"/>
<path class="st2" d="M-237,395.9h-4c-0.6,0-1-0.4-1-1c0-0.6,0.4-1,1-1h4c0.6,0,1,0.4,1,1C-236,395.4-236.4,395.9-237,395.9z"/>
<g>
	<path class="st4" d="M-232.7,427.3c-0.6-1.1-2.8-2.5-2.8-2.5c-0.5-0.3-1.1-0.3-1.4,0.2c0,0-0.7,0.8-0.9,1c-0.8,0.5-1.6,0.5-2.4-0.3
		l-1.8-1.8l-1.8-1.8c-0.8-0.8-0.8-1.6-0.2-2.4c0.1-0.2,1-0.9,1-0.9c0.5-0.3,0.5-0.9,0.2-1.4c0,0-1.3-2.2-2.4-2.9
		c-0.5-0.3-1.1-0.2-1.5,0.2l-0.8,0.8c-2.6,2.5-1.4,5.4,1.1,8l2.3,2.4l2.3,2.4c2.5,2.6,5.3,3.9,7.9,1.4l0.8-0.8
		C-232.5,428.4-232.4,427.8-232.7,427.3z"/>
	<g>
		<path class="st4" d="M-234.8,421.8l1.5-0.3c-0.2-1.4-0.9-2.7-1.9-3.7c-1.1-1.1-2.4-1.8-3.9-2l-0.2,1.6c1.2,0.2,2.2,0.7,3,1.5
			C-235.5,419.7-235,420.7-234.8,421.8z"/>
		<path class="st4" d="M-232.4,415.1c-1.8-1.8-4-2.9-6.5-3.3l-0.2,1.6c2.2,0.3,4.1,1.3,5.6,2.8c1.5,1.5,2.4,3.3,2.8,5.3l1.5-0.3
			C-229.6,418.9-230.7,416.8-232.4,415.1z"/>
	</g>
</g>
</svg>
